ply
format ascii 1.0
comment Created by Blender 2.82 (sub 7) - www.blender.org, source file: ''
element vertex 384
property float x
property float y
property float z
property float nx
property float ny
property float nz
property float s
property float t
element face 128
property list uchar uint vertex_indices
end_header
0.197741 -4.933475 -3.972858 0.125675 -0.416150 -0.900540 0.986828 0.526748
0.627321 -6.447596 -2.277724 0.371349 -0.908902 -0.189673 0.986828 0.535609
-0.603586 -6.426301 -2.708549 -0.326090 -0.872585 -0.363598 0.977967 0.535609
-1.269395 -6.843707 0.191372 0.127079 -0.991852 0.005676 0.099919 0.511219
-3.477641 -5.433859 -0.967193 -0.657979 -0.630390 -0.411847 0.102863 0.505513
-1.275136 -5.777177 -1.343616 -0.359142 -0.883450 -0.300790 0.108780 0.511219
-3.477641 -5.433859 -0.967193 -0.657979 -0.630390 -0.411847 0.221870 0.488781
-1.269395 -6.843707 0.191372 0.127079 -0.991852 0.005676 0.230731 0.488781
-2.667174 -6.143286 0.864098 -0.511490 -0.741478 0.434217 0.230731 0.497642
-1.139511 -6.013466 1.188309 -0.252815 -0.908322 0.333140 0.083008 0.401462
-2.667174 -6.143286 0.864098 -0.511490 -0.741478 0.434217 0.075528 0.401462
-1.269395 -6.843707 0.191372 0.127079 -0.991852 0.005676 0.079268 0.397723
-2.854131 -4.214436 2.129709 -0.740501 -0.346629 0.575732 0.316097 0.509838
-2.667174 -6.143286 0.864098 -0.511490 -0.741478 0.434217 0.307236 0.500977
-1.139511 -6.013466 1.188309 -0.252815 -0.908322 0.333140 0.316097 0.500977
-2.854131 -4.214436 2.129709 -0.740501 -0.346629 0.575732 0.368211 0.488781
-1.139511 -6.013466 1.188309 -0.252815 -0.908322 0.333140 0.377072 0.488781
-0.604155 -6.360097 2.692214 -0.314066 -0.798944 0.512803 0.377072 0.497642
3.042078 -5.931628 0.967373 0.568163 -0.713889 0.409253 0.173089 0.403416
1.414984 -5.855039 1.383000 0.372082 -0.894894 0.246254 0.180569 0.403416
1.501103 -6.714995 0.083425 -0.136509 -0.990631 0.000153 0.180875 0.405872
2.479840 -4.528838 2.259450 0.679067 -0.368419 0.634877 0.610733 0.509838
1.414984 -5.855039 1.383000 0.372082 -0.894894 0.246254 0.610733 0.500977
3.042078 -5.931628 0.967373 0.568163 -0.713889 0.409253 0.619594 0.500977
1.501103 -6.714995 0.083425 -0.136509 -0.990631 0.000153 0.643984 0.499023
2.863756 -5.966056 -1.092035 0.483993 -0.756554 -0.439650 0.635123 0.499023
3.042078 -5.931628 0.967373 0.568163 -0.713889 0.409253 0.641395 0.488781
2.863756 -5.966056 -1.092035 0.483993 -0.756554 -0.439650 0.197480 0.413658
1.501103 -6.714995 0.083425 -0.136509 -0.990631 0.000153 0.201219 0.409918
1.510627 -5.634076 -1.614865 0.366497 -0.845546 -0.388195 0.204959 0.413658
0.197741 -4.933475 -3.972858 0.125675 -0.416150 -0.900540 0.413658 0.988082
-1.769646 2.699684 -4.389139 -0.423536 0.239296 -0.873684 0.391220 0.999023
2.045139 1.536648 -4.105679 0.447371 0.035707 -0.893613 0.391220 0.977967
-1.717546 -3.790928 -3.703867 -0.559771 -0.276101 -0.781243 0.119594 0.974633
-2.989622 -0.519192 -2.818022 -0.743034 -0.077548 -0.664693 0.098538 0.974633
-1.769646 2.699684 -4.389139 -0.423536 0.239296 -0.873684 0.105569 0.952196
-1.769646 2.699684 -4.389139 -0.423536 0.239296 -0.873684 0.730731 0.685284
-2.989622 -0.519192 -2.818022 -0.743034 -0.077548 -0.664693 0.730731 0.704960
-2.745934 3.413347 -2.637087 -0.545854 0.525681 -0.652425 0.720893 0.695122
-4.442412 3.809166 -1.612119 -0.766625 0.479110 -0.427412 0.511219 0.973252
-2.989622 -0.519192 -2.818022 -0.743034 -0.077548 -0.664693 0.488781 0.960596
-4.488790 -3.721771 -0.452890 -0.961089 -0.259499 -0.094363 0.511219 0.952196
-4.442412 3.809166 -1.612119 -0.766625 0.479110 -0.427412 0.779511 0.973252
-2.745934 3.413347 -2.637087 -0.545854 0.525681 -0.652425 0.757074 0.963503
-2.989622 -0.519192 -2.818022 -0.743034 -0.077548 -0.664693 0.779511 0.952196
-4.408690 3.564608 1.626255 -0.822474 0.387310 0.416517 0.948862 0.974633
-4.442412 3.809166 -1.612119 -0.766625 0.479110 -0.427412 0.927806 0.974633
-4.488790 -3.721771 -0.452890 -0.961089 -0.259499 -0.094363 0.947413 0.952196
-2.854131 -4.214436 2.129709 -0.740501 -0.346629 0.575732 0.734065 0.706341
-3.115639 2.704988 2.847565 -0.711112 0.150822 0.686666 0.743902 0.696503
-4.408690 3.564608 1.626255 -0.822474 0.387310 0.416517 0.746735 0.696574
-3.115639 2.704988 2.847565 -0.711112 0.150822 0.686666 0.802520 0.683903
-2.854131 -4.214436 2.129709 -0.740501 -0.346629 0.575732 0.802911 0.686274
-1.916605 -3.878159 3.331466 -0.561113 -0.271706 0.781854 0.782845 0.683903
-3.115639 2.704988 2.847565 -0.711112 0.150822 0.686666 0.805855 0.704960
-1.916605 -3.878159 3.331466 -0.561113 -0.271706 0.781854 0.805855 0.685284
-2.039433 2.979699 4.146103 -0.466262 0.262154 0.844874 0.807705 0.684372
-0.035541 -3.528438 4.131822 -0.082736 -0.238502 0.967589 0.572964 0.925853
1.757323 2.081800 4.424438 0.428694 0.111240 0.896542 0.563333 0.903416
-2.039433 2.979699 4.146103 -0.466262 0.262154 0.844874 0.584389 0.903416
1.757323 2.081800 4.424438 0.428694 0.111240 0.896542 0.074481 0.901462
1.511499 -4.164683 3.706660 0.479476 -0.323222 0.815821 0.075528 0.879025
3.093297 2.119267 2.761981 0.701559 0.050783 0.710776 0.096584 0.879025
4.479348 -3.473196 0.675037 0.929441 -0.220374 0.295907 0.091491 0.877072
4.548769 3.163315 -1.532268 0.852565 0.350139 -0.387890 0.075528 0.854635
4.491278 2.890413 1.635913 0.872463 0.119388 0.473861 0.096584 0.854635
4.051501 -4.374501 -0.917365 0.869137 -0.350444 -0.348918 0.875691 0.706341
2.045139 1.536648 -4.105679 0.447371 0.035707 -0.893613 0.856016 0.706341
4.548769 3.163315 -1.532268 0.852565 0.350139 -0.387890 0.865854 0.696503
-0.604155 -6.360097 2.692214 -0.314066 -0.798944 0.512803 0.395365 0.320813
-1.139511 -6.013466 1.188309 -0.252815 -0.908322 0.333140 0.392602 0.318050
0.125646 -6.556047 1.157576 0.033326 -0.933348 -0.357372 0.395365 0.318050
0.627321 -6.447596 -2.277724 0.371349 -0.908902 -0.189673 0.856016 0.401462
1.510627 -5.634076 -1.614865 0.366497 -0.845546 -0.388195 0.859756 0.397723
0.140621 -5.827817 0.273414 0.030976 -0.987671 -0.153356 0.863496 0.401462
0.140621 -5.827817 0.273414 0.030976 -0.987671 -0.153356 0.924472 0.403416
-0.603586 -6.426301 -2.708549 -0.326090 -0.872585 -0.363598 0.920732 0.407156
0.627321 -6.447596 -2.277724 0.371349 -0.908902 -0.189673 0.916992 0.403416
0.140621 -5.827817 0.273414 0.030976 -0.987671 -0.153356 0.940001 0.392602
-1.275136 -5.777177 -1.343616 -0.359142 -0.883450 -0.300790 0.946704 0.396894
-0.603586 -6.426301 -2.708549 -0.326090 -0.872585 -0.363598 0.936454 0.398487
-1.269395 -6.843707 0.191372 0.127079 -0.991852 0.005676 0.488781 0.324147
-1.275136 -5.777177 -1.343616 -0.359142 -0.883450 -0.300790 0.491545 0.324147
0.140621 -5.827817 0.273414 0.030976 -0.987671 -0.153356 0.488781 0.326911
-0.604155 -6.360097 2.692214 -0.314066 -0.798944 0.512803 0.098538 0.380406
0.125646 -6.556047 1.157576 0.033326 -0.933348 -0.357372 0.102277 0.384146
0.911138 -6.473839 2.398870 0.399548 -0.845485 0.354167 0.098538 0.387886
1.414984 -5.855039 1.383000 0.372082 -0.894894 0.246254 0.160894 0.366830
0.911138 -6.473839 2.398870 0.399548 -0.845485 0.354167 0.168374 0.366830
0.125646 -6.556047 1.157576 0.033326 -0.933348 -0.357372 0.164634 0.370570
-0.058530 3.692017 -3.961874 0.058107 0.599963 -0.797876 0.889267 0.497642
1.438778 4.535463 -2.869709 0.124851 0.984588 -0.122227 0.880406 0.488781
2.124664 3.706587 -3.678164 0.548723 0.427747 -0.718253 0.889267 0.488781
0.173603 4.250691 -1.878980 -0.070559 0.943876 0.322581 0.330245 0.387886
1.438778 4.535463 -2.869709 0.124851 0.984588 -0.122227 0.330245 0.380406
-0.058530 3.692017 -3.961874 0.058107 0.599963 -0.797876 0.333985 0.384146
0.173603 4.250691 -1.878980 -0.070559 0.943876 0.322581 0.356016 0.377072
-0.058530 3.692017 -3.961874 0.058107 0.599963 -0.797876 0.359756 0.373332
-1.142366 4.404415 -3.242421 -0.168767 0.921812 -0.348949 0.363795 0.371365
-2.745934 3.413347 -2.637087 -0.545854 0.525681 -0.652425 0.368211 0.377072
-1.785378 4.003684 -1.794589 -0.001068 0.999969 0.003723 0.371951 0.373332
-1.142366 4.404415 -3.242421 -0.168767 0.921812 -0.348949 0.373308 0.381408
-2.745934 3.413347 -2.637087 -0.545854 0.525681 -0.652425 0.404797 0.379025
-3.287816 4.482417 -1.186830 -0.137608 0.961150 -0.239174 0.412277 0.379025
-1.785378 4.003684 -1.794589 -0.001068 0.999969 0.003723 0.408537 0.382765
-4.408690 3.564608 1.626255 -0.822474 0.387310 0.416517 0.452196 0.387886
-3.287816 4.482417 -1.186830 -0.137608 0.961150 -0.239174 0.452196 0.380406
-4.442412 3.809166 -1.612119 -0.766625 0.479110 -0.427412 0.455936 0.384146
-3.145036 4.610384 1.200851 -0.128727 0.974548 0.183355 0.522033 0.379025
-2.494797 4.145613 2.324768 -0.337687 0.884762 0.321085 0.518293 0.382765
-1.969206 4.072048 0.107550 0.468490 0.881497 0.058779 0.514553 0.379025
3.371077 4.519528 1.365246 0.195288 0.950926 0.239967 0.643984 0.366830
1.599270 3.942308 1.458480 -0.183142 0.969726 -0.161443 0.640244 0.370570
2.708583 3.708139 2.550428 0.453261 0.659902 0.599200 0.636504 0.366830
3.283119 4.328170 -0.823378 0.247322 0.956114 -0.156896 0.668374 0.379025
3.371077 4.519528 1.365246 0.195288 0.950926 0.239967 0.661653 0.388508
4.246838 3.830237 1.524962 0.747581 0.539384 0.387463 0.662314 0.383207
3.283119 4.328170 -0.823378 0.247322 0.956114 -0.156896 0.659513 0.368211
1.904351 3.998478 0.117090 -0.290292 0.956420 0.031129 0.663253 0.371951
3.371077 4.519528 1.365246 0.195288 0.950926 0.239967 0.659513 0.375691
2.647973 3.981554 -2.439473 0.466445 0.800409 -0.376476 0.610733 0.319431
0.173603 4.250691 -1.878980 -0.070559 0.943876 0.322581 0.613496 0.322194
1.461786 3.993956 -1.195807 -0.113437 0.987365 0.110599 0.610733 0.322194
1.438778 4.535463 -2.869709 0.124851 0.984588 -0.122227 0.758455 0.379025
0.173603 4.250691 -1.878980 -0.070559 0.943876 0.322581 0.765935 0.379025
2.647973 3.981554 -2.439473 0.466445 0.800409 -0.376476 0.762195 0.382765
0.173603 4.250691 -1.878980 -0.070559 0.943876 0.322581 0.863496 0.379025
-1.142366 4.404415 -3.242421 -0.168767 0.921812 -0.348949 0.859756 0.382765
-1.785378 4.003684 -1.794589 -0.001068 0.999969 0.003723 0.860006 0.382118
-1.969206 4.072048 0.107550 0.468490 0.881497 0.058779 0.961057 0.366830
-3.287816 4.482417 -1.186830 -0.137608 0.961150 -0.239174 0.957317 0.370570
-3.145036 4.610384 1.200851 -0.128727 0.974548 0.183355 0.953577 0.366830
-1.969206 4.072048 0.107550 0.468490 0.881497 0.058779 0.011219 0.356016
-2.494797 4.145613 2.324768 -0.337687 0.884762 0.321085 0.011219 0.363496
-1.422921 3.521060 0.828290 0.282785 0.950743 -0.126743 0.007479 0.359756
-0.011695 4.295223 3.105228 0.086612 0.975494 0.202124 0.074147 0.356016
-0.063120 4.015709 1.583001 0.058901 0.865322 -0.497726 0.077887 0.359756
-1.468420 4.705800 2.961803 -0.201117 0.956145 0.212867 0.074147 0.363496
1.250691 4.459327 3.267350 0.230049 0.908200 0.349590 0.137815 0.358708
-0.063120 4.015709 1.583001 0.058901 0.865322 -0.497726 0.143984 0.354635
-0.011695 4.295223 3.105228 0.086612 0.975494 0.202124 0.140244 0.358375
1.599270 3.942308 1.458480 -0.183142 0.969726 -0.161443 0.168374 0.364877
1.250691 4.459327 3.267350 0.230049 0.908200 0.349590 0.160894 0.364877
2.708583 3.708139 2.550428 0.453261 0.659902 0.599200 0.164634 0.361137
-0.063120 4.015709 1.583001 0.058901 0.865322 -0.497726 0.169755 0.363496
1.250691 4.459327 3.267350 0.230049 0.908200 0.349590 0.166015 0.359756
1.599270 3.942308 1.458480 -0.183142 0.969726 -0.161443 0.165951 0.357058
3.371077 4.519528 1.365246 0.195288 0.950926 0.239967 0.194145 0.363496
1.904351 3.998478 0.117090 -0.290292 0.956420 0.031129 0.190405 0.359756
1.599270 3.942308 1.458480 -0.183142 0.969726 -0.161443 0.191186 0.356213
3.283119 4.328170 -0.823378 0.247322 0.956114 -0.156896 0.305855 0.363496
1.461786 3.993956 -1.195807 -0.113437 0.987365 0.110599 0.303901 0.360850
1.904351 3.998478 0.117090 -0.290292 0.956420 0.031129 0.309595 0.359756
1.461786 3.993956 -1.195807 -0.113437 0.987365 0.110599 0.326911 0.352682
3.283119 4.328170 -0.823378 0.247322 0.956114 -0.156896 0.320449 0.348902
2.647973 3.981554 -2.439473 0.466445 0.800409 -0.376476 0.323171 0.348942
0.173603 4.250691 -1.878980 -0.070559 0.943876 0.322581 0.635123 0.326911
-1.785378 4.003684 -1.794589 -0.001068 0.999969 0.003723 0.635123 0.324147
-0.636793 3.460379 -1.244931 0.052278 0.930509 0.362438 0.637886 0.324147
-1.785378 4.003684 -1.794589 -0.001068 0.999969 0.003723 0.913658 0.314716
-1.969206 4.072048 0.107550 0.468490 0.881497 0.058779 0.910894 0.311952
-0.636793 3.460379 -1.244931 0.052278 0.930509 0.362438 0.913658 0.311952
-1.969206 4.072048 0.107550 0.468490 0.881497 0.058779 0.942764 0.309999
-1.422921 3.521060 0.828290 0.282785 0.950743 -0.126743 0.940001 0.309999
-0.636793 3.460379 -1.244931 0.052278 0.930509 0.362438 0.940001 0.307236
1.023053 3.524889 1.268300 -0.207709 0.879086 -0.428968 0.996260 0.299757
-1.422921 3.521060 0.828290 0.282785 0.950743 -0.126743 0.999023 0.299757
-0.063120 4.015709 1.583001 0.058901 0.865322 -0.497726 0.999023 0.302520
-0.063120 4.015709 1.583001 0.058901 0.865322 -0.497726 0.031464 0.288943
1.599270 3.942308 1.458480 -0.183142 0.969726 -0.161443 0.034228 0.291706
1.023053 3.524889 1.268300 -0.207709 0.879086 -0.428968 0.031464 0.291706
1.599270 3.942308 1.458480 -0.183142 0.969726 -0.161443 0.057236 0.273414
1.904351 3.998478 0.117090 -0.290292 0.956420 0.031129 0.059999 0.270650
1.023053 3.524889 1.268300 -0.207709 0.879086 -0.428968 0.059999 0.273414
-0.058530 3.692017 -3.961874 0.058107 0.599963 -0.797876 0.900081 0.464391
-1.769646 2.699684 -4.389139 -0.423536 0.239296 -0.873684 0.891220 0.473252
-1.142366 4.404415 -3.242421 -0.168767 0.921812 -0.348949 0.891220 0.464391
-1.769646 2.699684 -4.389139 -0.423536 0.239296 -0.873684 0.990163 0.476586
-2.745934 3.413347 -2.637087 -0.545854 0.525681 -0.652425 0.999023 0.476586
-1.142366 4.404415 -3.242421 -0.168767 0.921812 -0.348949 0.999023 0.485447
-4.442412 3.809166 -1.612119 -0.766625 0.479110 -0.427412 0.074147 0.441382
-3.287816 4.482417 -1.186830 -0.137608 0.961150 -0.239174 0.083008 0.450243
-2.745934 3.413347 -2.637087 -0.545854 0.525681 -0.652425 0.074147 0.450243
-3.287816 4.482417 -1.186830 -0.137608 0.961150 -0.239174 0.217155 0.462438
-4.408690 3.564608 1.626255 -0.822474 0.387310 0.416517 0.208294 0.462438
-3.145036 4.610384 1.200851 -0.128727 0.974548 0.183355 0.206341 0.457385
-4.408690 3.564608 1.626255 -0.822474 0.387310 0.416517 0.368211 0.352682
-2.494797 4.145613 2.324768 -0.337687 0.884762 0.321085 0.371951 0.348942
-3.145036 4.610384 1.200851 -0.128727 0.974548 0.183355 0.375691 0.352682
0.832025 3.500043 4.185784 0.150273 0.475631 0.866695 0.316097 0.660894
-1.468420 4.705800 2.961803 -0.201117 0.956145 0.212867 0.316097 0.680569
-2.039433 2.979699 4.146103 -0.466262 0.262154 0.844874 0.306259 0.670732
0.832025 3.500043 4.185784 0.150273 0.475631 0.866695 0.380406 0.352682
-0.011695 4.295223 3.105228 0.086612 0.975494 0.202124 0.384146 0.348942
-1.468420 4.705800 2.961803 -0.201117 0.956145 0.212867 0.387886 0.352682
0.832025 3.500043 4.185784 0.150273 0.475631 0.866695 0.380406 0.354635
1.250691 4.459327 3.267350 0.230049 0.908200 0.349590 0.387886 0.354635
-0.011695 4.295223 3.105228 0.086612 0.975494 0.202124 0.384146 0.358375
4.246838 3.830237 1.524962 0.747581 0.539384 0.387463 0.619594 0.452196
3.371077 4.519528 1.365246 0.195288 0.950926 0.239967 0.610733 0.461057
2.708583 3.708139 2.550428 0.453261 0.659902 0.599200 0.610733 0.452196
4.246838 3.830237 1.524962 0.747581 0.539384 0.387463 0.734065 0.462438
4.548769 3.163315 -1.532268 0.852565 0.350139 -0.387890 0.742926 0.453577
3.283119 4.328170 -0.823378 0.247322 0.956114 -0.156896 0.742926 0.462438
2.647973 3.981554 -2.439473 0.466445 0.800409 -0.376476 0.839106 0.450243
3.283119 4.328170 -0.823378 0.247322 0.956114 -0.156896 0.823588 0.450243
4.548769 3.163315 -1.532268 0.852565 0.350139 -0.387890 0.830245 0.441382
2.421688 -3.894940 -2.884388 0.617389 -0.302438 -0.726157 0.863496 0.450243
1.510627 -5.634076 -1.614865 0.366497 -0.845546 -0.388195 0.854635 0.450243
0.627321 -6.447596 -2.277724 0.371349 -0.908902 -0.189673 0.854635 0.441382
2.421688 -3.894940 -2.884388 0.617389 -0.302438 -0.726157 0.977967 0.681950
0.627321 -6.447596 -2.277724 0.371349 -0.908902 -0.189673 0.987805 0.672113
0.197741 -4.933475 -3.972858 0.125675 -0.416150 -0.900540 0.994483 0.676029
-0.603586 -6.426301 -2.708549 -0.326090 -0.872585 -0.363598 0.072194 0.636504
-1.717546 -3.790928 -3.703867 -0.559771 -0.276101 -0.781243 0.072194 0.656179
0.197741 -4.933475 -3.972858 0.125675 -0.416150 -0.900540 0.062357 0.646341
-2.494434 -3.870533 -2.465487 -0.710837 -0.353557 -0.607990 0.171708 0.656179
-0.603586 -6.426301 -2.708549 -0.326090 -0.872585 -0.363598 0.185421 0.635123
-1.275136 -5.777177 -1.343616 -0.359142 -0.883450 -0.300790 0.181546 0.646341
-1.717546 -3.790928 -3.703867 -0.559771 -0.276101 -0.781243 0.218536 0.636504
-0.603586 -6.426301 -2.708549 -0.326090 -0.872585 -0.363598 0.218536 0.656179
-2.494434 -3.870533 -2.465487 -0.710837 -0.353557 -0.607990 0.208698 0.646341
-3.477641 -5.433859 -0.967193 -0.657979 -0.630390 -0.411847 0.511219 0.636504
-2.494434 -3.870533 -2.465487 -0.710837 -0.353557 -0.607990 0.508919 0.656641
-1.275136 -5.777177 -1.343616 -0.359142 -0.883450 -0.300790 0.501381 0.646341
-2.667174 -6.143286 0.864098 -0.511490 -0.741478 0.434217 0.782845 0.657560
-2.854131 -4.214436 2.129709 -0.740501 -0.346629 0.575732 0.792683 0.647722
-4.488790 -3.721771 -0.452890 -0.961089 -0.259499 -0.094363 0.802520 0.657560
-2.667174 -6.143286 0.864098 -0.511490 -0.741478 0.434217 0.852682 0.636504
-4.488790 -3.721771 -0.452890 -0.961089 -0.259499 -0.094363 0.846315 0.652574
-3.477641 -5.433859 -0.967193 -0.657979 -0.630390 -0.411847 0.842844 0.646341
-0.604155 -6.360097 2.692214 -0.314066 -0.798944 0.512803 0.124309 0.610733
-1.916605 -3.878159 3.331466 -0.561113 -0.271706 0.781854 0.138768 0.618711
-2.854131 -4.214436 2.129709 -0.740501 -0.346629 0.575732 0.134146 0.620570
-0.604155 -6.360097 2.692214 -0.314066 -0.798944 0.512803 0.022033 0.852682
-0.035541 -3.528438 4.131822 -0.082736 -0.238502 0.967589 0.000977 0.852682
-1.916605 -3.878159 3.331466 -0.561113 -0.271706 0.781854 0.000977 0.831626
-0.604155 -6.360097 2.692214 -0.314066 -0.798944 0.512803 0.339106 0.610733
0.911138 -6.473839 2.398870 0.399548 -0.845485 0.354167 0.329268 0.620570
1.511499 -4.164683 3.706660 0.479476 -0.323222 0.815821 0.318050 0.622534
1.511499 -4.164683 3.706660 0.479476 -0.323222 0.815821 0.075528 0.830245
-0.035541 -3.528438 4.131822 -0.082736 -0.238502 0.967589 0.096584 0.830245
-0.604155 -6.360097 2.692214 -0.314066 -0.798944 0.512803 0.096584 0.851301
2.479840 -4.528838 2.259450 0.679067 -0.368419 0.634877 0.559999 0.612114
1.511499 -4.164683 3.706660 0.479476 -0.323222 0.815821 0.559999 0.631789
0.911138 -6.473839 2.398870 0.399548 -0.845485 0.354167 0.550162 0.621951
3.042078 -5.931628 0.967373 0.568163 -0.713889 0.409253 0.729350 0.633170
4.479348 -3.473196 0.675037 0.929441 -0.220374 0.295907 0.713745 0.626338
2.479840 -4.528838 2.259450 0.679067 -0.368419 0.634877 0.719512 0.623332
3.042078 -5.931628 0.967373 0.568163 -0.713889 0.409253 0.826911 0.633170
4.051501 -4.374501 -0.917365 0.869137 -0.350444 -0.348918 0.809720 0.627924
4.479348 -3.473196 0.675037 0.929441 -0.220374 0.295907 0.817073 0.623332
3.042078 -5.931628 0.967373 0.568163 -0.713889 0.409253 0.025367 0.587723
2.863756 -5.966056 -1.092035 0.483993 -0.756554 -0.439650 0.031115 0.590710
4.051501 -4.374501 -0.917365 0.869137 -0.350444 -0.348918 0.025367 0.607399
2.421688 -3.894940 -2.884388 0.617389 -0.302438 -0.726157 0.986828 0.448862
2.863756 -5.966056 -1.092035 0.483993 -0.756554 -0.439650 0.977967 0.440001
1.510627 -5.634076 -1.614865 0.366497 -0.845546 -0.388195 0.986828 0.440001
4.051501 -4.374501 -0.917365 0.869137 -0.350444 -0.348918 0.169755 0.587723
2.863756 -5.966056 -1.092035 0.483993 -0.756554 -0.439650 0.169755 0.607399
2.421688 -3.894940 -2.884388 0.617389 -0.302438 -0.726157 0.159918 0.597561
0.911138 -6.473839 2.398870 0.399548 -0.845485 0.354167 0.425853 0.343821
1.414984 -5.855039 1.383000 0.372082 -0.894894 0.246254 0.425853 0.351301
2.479840 -4.528838 2.259450 0.679067 -0.368419 0.634877 0.422113 0.347561
1.438778 4.535463 -2.869709 0.124851 0.984588 -0.122227 0.427806 0.351301
2.647973 3.981554 -2.439473 0.466445 0.800409 -0.376476 0.427806 0.343821
2.124664 3.706587 -3.678164 0.548723 0.427747 -0.718253 0.431546 0.347561
2.124664 3.706587 -3.678164 0.548723 0.427747 -0.718253 0.156179 0.425853
2.647973 3.981554 -2.439473 0.466445 0.800409 -0.376476 0.147318 0.425853
2.045139 1.536648 -4.105679 0.447371 0.035707 -0.893613 0.147318 0.416992
-4.408690 3.564608 1.626255 -0.822474 0.387310 0.416517 0.525367 0.343821
-3.115639 2.704988 2.847565 -0.711112 0.150822 0.686666 0.529107 0.347561
-2.494797 4.145613 2.324768 -0.337687 0.884762 0.321085 0.525367 0.351301
4.051501 -4.374501 -0.917365 0.869137 -0.350444 -0.348918 0.376668 0.597561
2.421688 -3.894940 -2.884388 0.617389 -0.302438 -0.726157 0.366830 0.607399
2.045139 1.536648 -4.105679 0.447371 0.035707 -0.893613 0.366830 0.587723
1.510627 -5.634076 -1.614865 0.366497 -0.845546 -0.388195 0.398699 0.285609
1.501103 -6.714995 0.083425 -0.136509 -0.990631 0.000153 0.401462 0.282845
0.140621 -5.827817 0.273414 0.030976 -0.987671 -0.153356 0.401462 0.285609
-1.468420 4.705800 2.961803 -0.201117 0.956145 0.212867 0.965772 0.328292
-1.422921 3.521060 0.828290 0.282785 0.950743 -0.126743 0.970489 0.325927
-2.494797 4.145613 2.324768 -0.337687 0.884762 0.321085 0.968536 0.328292
4.548769 3.163315 -1.532268 0.852565 0.350139 -0.387890 0.366830 0.416992
2.045139 1.536648 -4.105679 0.447371 0.035707 -0.893613 0.375378 0.427806
2.647973 3.981554 -2.439473 0.466445 0.800409 -0.376476 0.366830 0.425853
-2.039433 2.979699 4.146103 -0.466262 0.262154 0.844874 0.757074 0.356016
-1.468420 4.705800 2.961803 -0.201117 0.956145 0.212867 0.760814 0.359756
-2.494797 4.145613 2.324768 -0.337687 0.884762 0.321085 0.761909 0.361423
-2.039433 2.979699 4.146103 -0.466262 0.262154 0.844874 0.757074 0.351301
-2.494797 4.145613 2.324768 -0.337687 0.884762 0.321085 0.757074 0.343821
-3.115639 2.704988 2.847565 -0.711112 0.150822 0.686666 0.760814 0.347561
2.421688 -3.894940 -2.884388 0.617389 -0.302438 -0.726157 0.656179 0.852682
0.197741 -4.933475 -3.972858 0.125675 -0.416150 -0.900540 0.635123 0.852682
2.045139 1.536648 -4.105679 0.447371 0.035707 -0.893613 0.649457 0.830245
-1.717546 -3.790928 -3.703867 -0.559771 -0.276101 -0.781243 0.976586 0.831626
-1.769646 2.699684 -4.389139 -0.423536 0.239296 -0.873684 0.997642 0.852682
0.197741 -4.933475 -3.972858 0.125675 -0.416150 -0.900540 0.976586 0.852682
-2.494434 -3.870533 -2.465487 -0.710837 -0.353557 -0.607990 0.729350 0.608780
-4.488790 -3.721771 -0.452890 -0.961089 -0.259499 -0.094363 0.709675 0.608780
-2.989622 -0.519192 -2.818022 -0.743034 -0.077548 -0.664693 0.719512 0.598942
-3.477641 -5.433859 -0.967193 -0.657979 -0.630390 -0.411847 0.659513 0.807236
-4.488790 -3.721771 -0.452890 -0.961089 -0.259499 -0.094363 0.680569 0.828292
-2.494434 -3.870533 -2.465487 -0.710837 -0.353557 -0.607990 0.659513 0.828292
-4.408690 3.564608 1.626255 -0.822474 0.387310 0.416517 0.196099 0.782845
-4.488790 -3.721771 -0.452890 -0.961089 -0.259499 -0.094363 0.217155 0.803901
-2.854131 -4.214436 2.129709 -0.740501 -0.346629 0.575732 0.196099 0.803901
-2.039433 2.979699 4.146103 -0.466262 0.262154 0.844874 0.026748 0.757074
-1.916605 -3.878159 3.331466 -0.561113 -0.271706 0.781854 0.047804 0.757074
-0.035541 -3.528438 4.131822 -0.082736 -0.238502 0.967589 0.038867 0.779511
1.757323 2.081800 4.424438 0.428694 0.111240 0.896542 0.586342 0.758455
-0.035541 -3.528438 4.131822 -0.082736 -0.238502 0.967589 0.607398 0.779511
1.511499 -4.164683 3.706660 0.479476 -0.323222 0.815821 0.586342 0.779511
2.479840 -4.528838 2.259450 0.679067 -0.368419 0.634877 0.977967 0.608780
3.093297 2.119267 2.761981 0.701559 0.050783 0.710776 0.987805 0.598942
1.511499 -4.164683 3.706660 0.479476 -0.323222 0.815821 0.990073 0.598448
4.479348 -3.473196 0.675037 0.929441 -0.220374 0.295907 0.143984 0.755121
4.491278 2.890413 1.635913 0.872463 0.119388 0.473861 0.122928 0.755121
3.093297 2.119267 2.761981 0.701559 0.050783 0.710776 0.122928 0.734065
4.479348 -3.473196 0.675037 0.929441 -0.220374 0.295907 0.145365 0.753740
3.093297 2.119267 2.761981 0.701559 0.050783 0.710776 0.124309 0.732684
2.479840 -4.528838 2.259450 0.679067 -0.368419 0.634877 0.145365 0.732684
4.479348 -3.473196 0.675037 0.929441 -0.220374 0.295907 0.645967 0.755121
4.051501 -4.374501 -0.917365 0.869137 -0.350444 -0.348918 0.636504 0.732684
4.548769 3.163315 -1.532268 0.852565 0.350139 -0.387890 0.657560 0.732684
-1.717546 -3.790928 -3.703867 -0.559771 -0.276101 -0.781243 0.217155 0.561952
-2.494434 -3.870533 -2.465487 -0.710837 -0.353557 -0.607990 0.207317 0.571790
-2.989622 -0.519192 -2.818022 -0.743034 -0.077548 -0.664693 0.197480 0.561952
-1.969206 4.072048 0.107550 0.468490 0.881497 0.058779 0.334389 0.296423
-1.785378 4.003684 -1.794589 -0.001068 0.999969 0.003723 0.331626 0.293660
-3.287816 4.482417 -1.186830 -0.137608 0.961150 -0.239174 0.334389 0.293660
-1.468420 4.705800 2.961803 -0.201117 0.956145 0.212867 0.392602 0.293660
-0.063120 4.015709 1.583001 0.058901 0.865322 -0.497726 0.395365 0.293660
-1.422921 3.521060 0.828290 0.282785 0.950743 -0.126743 0.397318 0.295243
-0.058530 3.692017 -3.961874 0.058107 0.599963 -0.797876 0.217155 0.730731
2.124664 3.706587 -3.678164 0.548723 0.427747 -0.718253 0.196099 0.730731
2.045139 1.536648 -4.105679 0.447371 0.035707 -0.893613 0.196099 0.709675
-0.058530 3.692017 -3.961874 0.058107 0.599963 -0.797876 0.218536 0.729350
2.045139 1.536648 -4.105679 0.447371 0.035707 -0.893613 0.197480 0.708294
-1.769646 2.699684 -4.389139 -0.423536 0.239296 -0.873684 0.218536 0.708294
1.250691 4.459327 3.267350 0.230049 0.908200 0.349590 0.803901 0.538943
0.832025 3.500043 4.185784 0.150273 0.475631 0.866695 0.800929 0.558408
1.757323 2.081800 4.424438 0.428694 0.111240 0.896542 0.794064 0.548781
-2.039433 2.979699 4.146103 -0.466262 0.262154 0.844874 0.244879 0.685284
1.757323 2.081800 4.424438 0.428694 0.111240 0.896542 0.265935 0.706341
0.832025 3.500043 4.185784 0.150273 0.475631 0.866695 0.244879 0.706341
2.708583 3.708139 2.550428 0.453261 0.659902 0.599200 0.002358 0.535609
1.250691 4.459327 3.267350 0.230049 0.908200 0.349590 0.012195 0.525771
1.757323 2.081800 4.424438 0.428694 0.111240 0.896542 0.022033 0.535609
4.491278 2.890413 1.635913 0.872463 0.119388 0.473861 0.122928 0.534228
4.246838 3.830237 1.524962 0.747581 0.539384 0.387463 0.122928 0.514553
2.708583 3.708139 2.550428 0.453261 0.659902 0.599200 0.132765 0.524390
4.246838 3.830237 1.524962 0.747581 0.539384 0.387463 0.441382 0.535609
4.491278 2.890413 1.635913 0.872463 0.119388 0.473861 0.451219 0.525771
4.548769 3.163315 -1.532268 0.852565 0.350139 -0.387890 0.457136 0.528925
1.757323 2.081800 4.424438 0.428694 0.111240 0.896542 0.826911 0.438048
3.093297 2.119267 2.761981 0.701559 0.050783 0.710776 0.818050 0.438048
2.708583 3.708139 2.550428 0.453261 0.659902 0.599200 0.809386 0.426719
4.491278 2.890413 1.635913 0.872463 0.119388 0.473861 0.948862 0.415611
2.708583 3.708139 2.550428 0.453261 0.659902 0.599200 0.938048 0.423927
3.093297 2.119267 2.761981 0.701559 0.050783 0.710776 0.940001 0.415611
-0.636793 3.460379 -1.244931 0.052278 0.930509 0.362438 0.002358 0.267316
1.461786 3.993956 -1.195807 -0.113437 0.987365 0.110599 0.005121 0.264553
0.173603 4.250691 -1.878980 -0.070559 0.943876 0.322581 0.005121 0.267316
0.125646 -6.556047 1.157576 0.033326 -0.933348 -0.357372 0.507074 0.162277
-1.139511 -6.013466 1.188309 -0.252815 -0.908322 0.333140 0.507074 0.159513
0.140621 -5.827817 0.273414 0.030976 -0.987671 -0.153356 0.509838 0.159513
0.140621 -5.827817 0.273414 0.030976 -0.987671 -0.153356 0.171708 0.204960
-1.139511 -6.013466 1.188309 -0.252815 -0.908322 0.333140 0.171708 0.202196
-1.269395 -6.843707 0.191372 0.127079 -0.991852 0.005676 0.174472 0.202196
0.140621 -5.827817 0.273414 0.030976 -0.987671 -0.153356 0.186667 0.200243
1.414984 -5.855039 1.383000 0.372082 -0.894894 0.246254 0.183903 0.200243
0.125646 -6.556047 1.157576 0.033326 -0.933348 -0.357372 0.183903 0.197480
1.501103 -6.714995 0.083425 -0.136509 -0.990631 0.000153 0.197480 0.206341
1.414984 -5.855039 1.383000 0.372082 -0.894894 0.246254 0.200243 0.203577
0.140621 -5.827817 0.273414 0.030976 -0.987671 -0.153356 0.200243 0.206341
-1.422921 3.521060 0.828290 0.282785 0.950743 -0.126743 0.886320 0.253357
1.023053 3.524889 1.268300 -0.207709 0.879086 -0.428968 0.885087 0.252789
-0.636793 3.460379 -1.244931 0.052278 0.930509 0.362438 0.887863 0.251494
1.461786 3.993956 -1.195807 -0.113437 0.987365 0.110599 0.354466 0.155464
-0.636793 3.460379 -1.244931 0.052278 0.930509 0.362438 0.455476 0.176202
1.904351 3.998478 0.117090 -0.290292 0.956420 0.031129 0.352682 0.153416
-0.636793 3.460379 -1.244931 0.052278 0.930509 0.362438 0.868973 0.260202
1.023053 3.524889 1.268300 -0.207709 0.879086 -0.428968 0.869334 0.259849
1.904351 3.998478 0.117090 -0.290292 0.956420 0.031129 0.929188 0.269269
3 0 1 2
3 3 4 5
3 6 7 8
3 9 10 11
3 12 13 14
3 15 16 17
3 18 19 20
3 21 22 23
3 24 25 26
3 27 28 29
3 30 31 32
3 33 34 35
3 36 37 38
3 39 40 41
3 42 43 44
3 45 46 47
3 48 49 50
3 51 52 53
3 54 55 56
3 57 58 59
3 60 61 62
3 63 64 65
3 66 67 68
3 69 70 71
3 72 73 74
3 75 76 77
3 78 79 80
3 81 82 83
3 84 85 86
3 87 88 89
3 90 91 92
3 93 94 95
3 96 97 98
3 99 100 101
3 102 103 104
3 105 106 107
3 108 109 110
3 111 112 113
3 114 115 116
3 117 118 119
3 120 121 122
3 123 124 125
3 126 127 128
3 129 130 131
3 132 133 134
3 135 136 137
3 138 139 140
3 141 142 143
3 144 145 146
3 147 148 149
3 150 151 152
3 153 154 155
3 156 157 158
3 159 160 161
3 162 163 164
3 165 166 167
3 168 169 170
3 171 172 173
3 174 175 176
3 177 178 179
3 180 181 182
3 183 184 185
3 186 187 188
3 189 190 191
3 192 193 194
3 195 196 197
3 198 199 200
3 201 202 203
3 204 205 206
3 207 208 209
3 210 211 212
3 213 214 215
3 216 217 218
3 219 220 221
3 222 223 224
3 225 226 227
3 228 229 230
3 231 232 233
3 234 235 236
3 237 238 239
3 240 241 242
3 243 244 245
3 246 247 248
3 249 250 251
3 252 253 254
3 255 256 257
3 258 259 260
3 261 262 263
3 264 265 266
3 267 268 269
3 270 271 272
3 273 274 275
3 276 277 278
3 279 280 281
3 282 283 284
3 285 286 287
3 288 289 290
3 291 292 293
3 294 295 296
3 297 298 299
3 300 301 302
3 303 304 305
3 306 307 308
3 309 310 311
3 312 313 314
3 315 316 317
3 318 319 320
3 321 322 323
3 324 325 326
3 327 328 329
3 330 331 332
3 333 334 335
3 336 337 338
3 339 340 341
3 342 343 344
3 345 346 347
3 348 349 350
3 351 352 353
3 354 355 356
3 357 358 359
3 360 361 362
3 363 364 365
3 366 367 368
3 369 370 371
3 372 373 374
3 375 376 377
3 378 379 380
3 381 382 383
