ply
format ascii 1.0
comment VCGLIB generated
comment TextureFile pepper.png
element vertex 216
property float x
property float y
property float z
element face 428
property list uchar int vertex_indices
property list uchar float texcoord
property uchar red
property uchar green
property uchar blue
property uchar alpha
end_header
0.943014 -5.955082 -2.694677 
0.555866 -6.537924 -1.682843 
0.184767 -6.224374 -2.774018 
-0.448406 -6.062774 -3.023492 
0.251539 -5.272985 -3.713499 
-0.423916 -6.616908 -1.774363 
-0.724452 -6.261729 -2.443286 
-1.521018 -5.497391 -1.611144 
-1.814612 -6.662495 -0.446631 
-1.055312 -5.894449 -1.080154 
-2.784562 -5.898449 -0.944321 
-3.228166 -5.795794 -0.39472 
-1.831888 -6.623794 0.359928 
-2.431329 -6.341249 0.651698 
-3.154711 -5.563957 0.875186 
-1.477901 -6.56571 0.767171 
-2.348125 -5.775677 1.322946 
-1.441911 -5.81968 1.360124 
-2.329126 -4.723846 2.069053 
-0.753397 -6.470403 2.007483 
-1.421666 -5.406948 2.788017 
-0.338304 -5.996127 2.896051 
0.747666 -6.584705 2.104712 
0.454556 -5.29256 3.445467 
1.124596 -6.065573 2.742946 
1.397842 -5.906555 1.680099 
1.666111 -5.755284 1.475707 
1.916013 -6.547802 0.660469 
2.79032 -5.813333 1.225809 
2.240977 -4.957225 2.104692 
3.053448 -6.005557 0.486762 
1.916294 -6.497239 0.073158 
2.651742 -6.164966 -0.828602 
1.693546 -6.534061 -0.599873 
2.731441 -5.500646 -1.558804 
1.67864 -5.462613 -1.761279 
1.137891 -5.784781 -1.135451 
2.325887 1.484758 -3.93556 
1.836801 -1.496872 -3.778025 
2.676739 -3.46437 -2.67949 
1.638424 1.509349 -4.278757 
-0.517486 -1.841626 -4.263601 
-1.252351 0.54052 -4.542992 
-1.927302 0.595832 -4.29782 
-1.508129 1.809381 -4.49097 
-1.903559 -2.960728 -3.738275 
-2.989622 -0.519192 -2.818022 
-2.109253 2.441267 -3.949081 
-2.914273 2.018077 -2.79606 
-4.090653 -1.075157 -1.673448 
-4.382478 3.019289 -1.817935 
-4.609171 -1.229421 -0.874582 
-4.703187 2.758924 0.484166 
-4.717117 3.099944 -1.168579 
-4.578639 -2.356127 0.269116 
-4.472121 2.810528 1.436522 
-4.058872 2.343106 2.111641 
-3.686502 -3.784163 1.485415 
-2.756846 -3.310019 2.422149 
-3.127436 1.829404 2.851455 
-2.146789 -2.910118 3.311392 
-2.585383 2.2596 3.630722 
-1.933029 1.962509 4.150911 
-0.993558 1.287563 4.430143 
-0.498485 -3.62785 4.000831 
1.324965 1.787181 4.528502 
1.230036 -1.162203 4.204594 
2.022259 -1.256985 3.574748 
2.153903 1.340649 4.055003 
2.722452 -1.089437 2.529448 
3.062576 2.065723 2.868931 
4.174837 0.005198 1.393726 
4.429849 2.724946 1.822074 
4.453799 -2.547421 0.799495 
4.594228 0.509469 0.534964 
4.648033 -2.284742 -0.021003 
4.704377 2.861928 1.09736 
4.690873 2.900296 -0.819612 
4.512309 2.393399 -1.586278 
4.068223 2.054336 -2.155601 
3.59245 -3.911333 -1.695316 
3.108299 1.334326 -2.893387 
0.143511 -6.500665 -1.412686 
-0.965925 -6.615781 -0.191877 
-0.356695 -6.498069 1.269151 
0.134362 -6.581711 1.790586 
1.225129 -6.488957 -0.247422 
0.359439 -6.236486 -0.47827 
0.53596 -5.835726 -0.185456 
-0.142215 -6.456825 -0.753991 
-0.182107 -5.912566 -0.096233 
-1.165649 -6.561701 0.126662 
-0.889586 -6.554595 0.544872 
-0.454207 -5.929242 0.727747 
0.497466 -6.512604 1.325965 
0.659314 -5.855481 0.713638 
1.066489 -6.356953 0.496716 
1.793571 4.412134 -2.672621 
1.105413 4.507665 -2.937679 
2.264544 4.112046 -2.068025 
1.356312 4.166652 -3.475503 
0.014628 4.002135 -3.457453 
0.017539 4.240008 -2.659332 
-1.144312 4.152574 -3.59765 
-0.996067 4.440331 -2.896367 
-1.554088 4.249304 -2.940059 
-2.648174 3.550563 -2.555315 
-2.129471 3.938636 -2.099344 
-3.314057 4.465367 -1.462674 
-2.839632 4.503268 -1.118467 
-4.198947 4.090805 -1.057741 
-3.529907 4.306706 -0.243429 
-3.318476 4.536311 0.694763 
-3.05262 4.527611 1.464453 
-2.293975 4.177327 2.088463 
-2.500248 4.479793 0.948607 
-1.957011 4.396953 2.945521 
-1.217224 4.347877 3.592978 
-1.154297 4.638523 2.846195 
-1.294994 4.442815 2.033409 
-0.011695 4.295223 3.105228 
1.248335 4.344354 3.295864 
0.953144 4.474819 2.650682 
2.410527 3.902411 2.310466 
3.590615 4.250639 1.61635 
3.203249 4.557281 1.208533 
1.59927 3.942308 1.45848 
3.92513 4.17977 0.970489 
3.214517 4.268006 0.039863 
2.443086 4.479712 0.776131 
3.379386 4.258919 -1.283517 
2.86656 4.431451 -1.285554 
3.303643 3.804435 -2.100605 
0.800188 4.377873 -1.89955 
1.563072 3.943916 -1.405434 
0.067116 4.046508 -1.886463 
-0.584877 4.137966 -1.667271 
-1.4856 3.836264 -1.476198 
-2.172673 4.011735 -0.189324 
-1.6746 3.978184 -0.662504 
-1.695257 4.010089 0.513065 
-1.670574 3.943719 1.389036 
-0.693389 4.143477 1.490562 
0.64484 4.0954 1.524155 
1.776897 4.220009 -0.656272 
0.743354 4.102225 -1.447094 
0.687738 3.634456 -1.160094 
1.286477 3.601143 -1.083035 
0.088802 3.570497 -1.322572 
-0.930585 3.447086 -1.150584 
-1.258808 3.478415 -0.715732 
-1.614075 3.480136 -0.124078 
-1.303455 3.472258 0.466336 
-1.266481 3.484886 1.051105 
-0.074316 3.558745 1.361769 
-0.017893 4.048347 1.816834 
0.949189 3.565209 1.180601 
1.327266 3.5839 0.826063 
1.705844 4.081275 0.626681 
2.151664 4.108155 0.081064 
1.723398 3.663182 0.094438 
1.380278 3.63574 -0.463634 
1.930966 3.162905 -3.935737 
2.148006 3.84176 -3.406534 
2.648763 2.986055 -3.39328 
2.995857 3.41169 -2.585262 
-0.425808 3.347737 -4.153814 
-1.465332 3.335032 -4.117526 
-1.837657 3.723839 -3.552885 
-3.837203 4.045541 -1.778523 
-4.290838 3.662979 -1.75115 
-4.420871 3.747267 0.084698 
-4.076732 3.953991 1.284842 
-3.693143 3.80057 2.038635 
-2.635942 3.950595 2.474725 
-2.076187 3.506841 3.801111 
0.794019 3.437354 4.211895 
-1.224291 3.483133 4.133662 
1.623424 3.834863 3.715184 
0.992856 3.795681 3.975664 
2.813714 3.400975 2.709628 
3.972788 3.699986 1.923019 
4.424074 3.668176 0.866962 
4.211021 3.737594 -0.923962 
4.095531 3.470701 -1.749613 
1.701625 -4.341687 -3.442646 
2.444767 -4.272163 -2.426621 
-0.640027 -4.135719 -4.100722 
0.856738 -4.56073 -3.866721 
-0.855559 -5.481429 -3.42024 
-1.487782 -4.22446 -3.695528 
-2.225429 -4.407708 -2.263155 
-3.3978 -4.912267 -1.24025 
-2.71819 -3.050315 -2.551116 
-3.907205 -4.709347 0.37053 
-4.028224 -4.21813 -0.922067 
-4.262195 -3.893724 -0.010698 
-3.119836 -4.764429 1.564749 
-1.352889 -3.710772 3.689043 
-2.009931 -4.101799 3.087054 
0.239415 -3.391506 4.144755 
1.42983 -4.521163 3.574559 
1.255571 -3.636659 3.971428 
2.516153 -4.238253 2.3619 
2.010303 -3.614558 3.332102 
3.399329 -5.217893 1.179783 
3.598465 -4.256992 1.488383 
4.177418 -4.264839 -0.034826 
4.1297 -4.090664 0.74286 
3.331095 -5.049158 -1.388044 
3.707859 -5.01348 -0.577115 
4.232404 -3.522704 -0.802056 
-2.984915 3.212614 2.740837 
2.007894 2.640104 4.068073 
0.154994 -5.648485 0.252711 
-0.427751 -6.239248 0.298615 
3 0 35 1 6 0.997642 0.438048 0.990420 0.435028 0.990916 0.428560 191 191 191 255 
3 2 0 1 6 0.000977 0.412277 0.000977 0.404797 0.004716 0.408537 191 191 191 255 
3 4 0 2 6 0.948862 0.513172 0.938048 0.518631 0.940001 0.513172 191 191 191 255 
3 2 5 3 6 0.002358 0.413658 0.006098 0.409918 0.011165 0.412223 191 191 191 255 
3 3 5 6 6 0.025367 0.404797 0.029107 0.408537 0.025367 0.412277 191 191 191 255 
3 4 2 3 6 0.986828 0.526748 0.986828 0.535609 0.977967 0.535609 191 191 191 255 
3 7 6 9 6 0.022033 0.488781 0.013172 0.497642 0.013172 0.488781 191 191 191 255 
3 8 10 7 6 0.099919 0.511219 0.102863 0.505513 0.108780 0.511219 191 191 191 255 
3 8 7 9 6 0.124309 0.511219 0.135123 0.505286 0.133170 0.511219 191 191 191 255 
3 10 8 11 6 0.168374 0.488781 0.157560 0.489958 0.159513 0.488781 191 191 191 255 
3 12 13 8 6 0.220489 0.490162 0.226141 0.500977 0.220489 0.499023 191 191 191 255 
3 11 8 13 6 0.221870 0.488781 0.230731 0.488781 0.230731 0.497642 191 191 191 255 
3 13 14 11 6 0.270650 0.488781 0.279511 0.488781 0.281464 0.493960 191 191 191 255 
3 13 15 16 6 0.070813 0.391221 0.067073 0.394960 0.063333 0.391221 191 191 191 255 
3 17 16 15 6 0.083008 0.401462 0.075528 0.401462 0.079268 0.397723 191 191 191 255 
3 18 16 17 6 0.316097 0.509838 0.307236 0.500977 0.316097 0.500977 191 191 191 255 
3 13 16 14 6 0.340487 0.509838 0.337181 0.499023 0.340487 0.500977 191 191 191 255 
3 18 17 19 6 0.368211 0.488781 0.377072 0.488781 0.377072 0.497642 191 191 191 255 
3 20 18 19 6 0.412277 0.511219 0.403416 0.511219 0.401462 0.507244 191 191 191 255 
3 21 20 19 6 0.473252 0.500977 0.464391 0.509838 0.457868 0.500977 191 191 191 255 
3 24 21 22 6 0.465772 0.511219 0.476586 0.506963 0.474633 0.511219 191 191 191 255 
3 24 23 21 6 0.514553 0.511219 0.523414 0.502358 0.523414 0.511219 191 191 191 255 
3 24 22 25 6 0.160894 0.413658 0.164634 0.409918 0.168374 0.413658 191 191 191 255 
3 25 26 24 6 0.169755 0.400081 0.166015 0.396342 0.169755 0.392602 191 191 191 255 
3 28 26 27 6 0.173089 0.403416 0.180569 0.403416 0.180875 0.405872 191 191 191 255 
3 29 26 28 6 0.610733 0.509838 0.610733 0.500977 0.619594 0.500977 191 191 191 255 
3 27 30 28 6 0.185284 0.403416 0.192764 0.403416 0.189024 0.407156 191 191 191 255 
3 31 32 30 6 0.643984 0.499023 0.635123 0.499023 0.641395 0.488781 191 191 191 255 
3 31 30 27 6 0.183903 0.400081 0.183903 0.392602 0.187643 0.396342 191 191 191 255 
3 33 32 31 6 0.196099 0.400081 0.196099 0.392602 0.199838 0.396342 191 191 191 255 
3 32 33 35 6 0.197480 0.413658 0.201219 0.409918 0.204959 0.413658 191 191 191 255 
3 36 35 33 6 0.206341 0.392602 0.208294 0.395358 0.202601 0.396342 191 191 191 255 
3 32 35 34 6 0.826911 0.511219 0.818050 0.511219 0.818050 0.502358 191 191 191 255 
3 39 38 37 6 0.145365 0.997642 0.122928 0.998654 0.145365 0.976586 191 191 191 255 
3 37 38 40 6 0.389267 0.997642 0.366830 0.990920 0.389267 0.976586 191 191 191 255 
3 41 42 40 6 0.413658 0.988082 0.391220 0.999023 0.391220 0.977967 191 191 191 255 
3 38 41 40 6 0.485447 0.999023 0.464391 0.999023 0.482056 0.976586 191 191 191 255 
3 44 40 42 6 0.511219 0.997642 0.488781 0.992177 0.511219 0.976586 191 191 191 255 
3 41 43 42 6 0.875691 0.999023 0.854635 0.999023 0.864051 0.976586 191 191 191 255 
3 44 42 43 6 0.889121 0.999023 0.880406 0.976586 0.901462 0.976586 191 191 191 255 
3 45 46 43 6 0.119594 0.974633 0.098538 0.974633 0.105569 0.952196 191 191 191 255 
3 47 46 48 6 0.730731 0.685284 0.730731 0.704960 0.720893 0.695122 191 191 191 255 
3 44 43 47 6 0.364877 0.973252 0.342440 0.963077 0.364877 0.952196 191 191 191 255 
3 47 43 46 6 0.422084 0.974633 0.416992 0.952196 0.438048 0.952196 191 191 191 255 
3 50 46 49 6 0.511219 0.973252 0.488781 0.960596 0.511219 0.952196 191 191 191 255 
3 50 48 46 6 0.779511 0.973252 0.757074 0.963503 0.779511 0.952196 191 191 191 255 
3 52 53 51 6 0.948862 0.974633 0.927806 0.974633 0.927806 0.953577 191 191 191 255 
3 52 51 54 6 0.950243 0.973252 0.929187 0.952196 0.950243 0.952196 191 191 191 255 
3 50 49 51 6 0.119594 0.950243 0.098538 0.950243 0.098538 0.929187 191 191 191 255 
3 50 51 53 6 0.120975 0.948862 0.099919 0.927806 0.120975 0.927806 191 191 191 255 
3 55 52 54 6 0.265935 0.950243 0.244879 0.950243 0.258401 0.927806 191 191 191 255 
3 56 55 54 6 0.310354 0.950243 0.295041 0.927806 0.316097 0.927806 191 191 191 255 
3 58 59 56 6 0.734065 0.706341 0.743902 0.696503 0.746735 0.696574 191 191 191 255 
3 59 58 60 6 0.802520 0.683903 0.802911 0.686274 0.782845 0.683903 191 191 191 255 
3 59 60 61 6 0.805855 0.704960 0.805855 0.685284 0.807705 0.684372 191 191 191 255 
3 61 60 62 6 0.999023 0.948862 0.976586 0.937069 0.999023 0.927806 191 191 191 255 
3 62 60 63 6 0.265935 0.925853 0.244879 0.925853 0.266515 0.903416 191 191 191 255 
3 200 63 64 6 0.291706 0.924472 0.269269 0.917247 0.291706 0.903416 191 191 191 255 
3 200 65 63 6 0.572964 0.925853 0.563333 0.903416 0.584389 0.903416 191 191 191 255 
3 66 65 200 6 0.606618 0.925853 0.587723 0.903416 0.608779 0.903416 191 191 191 255 
3 66 68 65 6 0.681950 0.910079 0.659513 0.925853 0.659513 0.904797 191 191 191 255 
3 66 67 68 6 0.974633 0.924472 0.952196 0.922157 0.974633 0.903416 191 191 191 255 
3 68 67 69 6 0.074481 0.901462 0.075528 0.879025 0.096584 0.879025 191 191 191 255 
3 69 71 72 6 0.631789 0.901462 0.610733 0.901462 0.610733 0.880406 191 191 191 255 
3 69 72 70 6 0.633170 0.900081 0.612114 0.879025 0.633170 0.879025 191 191 191 255 
3 73 74 71 6 0.730731 0.886375 0.708294 0.901462 0.708294 0.880406 191 191 191 255 
3 75 74 73 6 0.803901 0.900081 0.781464 0.886980 0.803901 0.879025 191 191 191 255 
3 74 72 71 6 0.072194 0.864979 0.049757 0.877072 0.049757 0.856016 191 191 191 255 
3 75 77 74 6 0.091491 0.877072 0.075528 0.854635 0.096584 0.854635 191 191 191 255 
3 77 75 78 6 0.241545 0.877072 0.220489 0.877072 0.235778 0.854635 191 191 191 255 
3 78 80 79 6 0.558202 0.877072 0.538943 0.854635 0.559999 0.854635 191 191 191 255 
3 80 81 79 6 0.875691 0.706341 0.856016 0.706341 0.865854 0.696503 191 191 191 255 
3 35 36 1 6 0.356016 0.318050 0.358780 0.318050 0.358780 0.320813 191 191 191 255 
3 82 2 1 6 0.293659 0.392602 0.297399 0.396342 0.293659 0.400081 191 191 191 255 
3 82 5 2 6 0.331626 0.403416 0.339106 0.403416 0.335366 0.407156 191 191 191 255 
3 6 5 9 6 0.364877 0.400081 0.361137 0.396342 0.364877 0.392602 191 191 191 255 
3 83 8 9 6 0.401462 0.404797 0.397109 0.410686 0.397723 0.408537 191 191 191 255 
3 15 13 12 6 0.485447 0.413658 0.478110 0.410753 0.481707 0.409918 191 191 191 255 
3 19 17 84 6 0.395365 0.320813 0.392602 0.318050 0.395365 0.318050 191 191 191 255 
3 22 21 19 6 0.563333 0.401462 0.567073 0.397723 0.570813 0.401462 191 191 191 255 
3 85 22 19 6 0.584389 0.400081 0.580649 0.396342 0.584389 0.392602 191 191 191 255 
3 86 33 31 6 0.803901 0.392602 0.798744 0.397687 0.800162 0.396342 191 191 191 255 
3 1 36 87 6 0.856016 0.401462 0.859756 0.397723 0.863496 0.401462 191 191 191 255 
3 36 88 87 6 0.459675 0.324147 0.462438 0.324147 0.462438 0.326911 191 191 191 255 
3 82 1 87 6 0.901462 0.400081 0.897723 0.396342 0.901462 0.392602 191 191 191 255 
3 89 5 82 6 0.924472 0.403416 0.920732 0.407156 0.916992 0.403416 191 191 191 255 
3 89 90 9 6 0.480731 0.340487 0.477967 0.340487 0.480731 0.337723 191 191 191 255 
3 89 9 5 6 0.940001 0.392602 0.946704 0.396894 0.936454 0.398487 191 191 191 255 
3 83 9 90 6 0.488781 0.324147 0.491545 0.324147 0.488781 0.326911 191 191 191 255 
3 12 8 83 6 0.976586 0.392602 0.980326 0.396342 0.976586 0.400081 191 191 191 255 
3 12 83 91 6 0.985447 0.401462 0.977967 0.401462 0.981707 0.397723 191 191 191 255 
3 12 92 15 6 0.014553 0.377072 0.018293 0.373332 0.021685 0.373962 191 191 191 255 
3 12 91 92 6 0.046423 0.389267 0.038943 0.389267 0.042683 0.385527 191 191 191 255 
3 17 92 93 6 0.522033 0.340487 0.519269 0.340487 0.519269 0.337723 191 191 191 255 
3 15 92 17 6 0.520006 0.332272 0.523414 0.331626 0.523414 0.334389 191 191 191 255 
3 84 17 93 6 0.096584 0.368211 0.093981 0.375850 0.092844 0.371951 191 191 191 255 
3 19 84 85 6 0.098538 0.380406 0.102277 0.384146 0.098538 0.387886 191 191 191 255 
3 84 94 85 6 0.538313 0.324147 0.543660 0.325764 0.538943 0.328292 191 191 191 255 
3 85 94 22 6 0.148699 0.379025 0.156179 0.379025 0.152439 0.382765 191 191 191 255 
3 25 22 94 6 0.160894 0.366830 0.168374 0.366830 0.164634 0.370570 191 191 191 255 
3 94 95 25 6 0.578292 0.337723 0.578292 0.340487 0.575528 0.340487 191 191 191 255 
3 96 26 95 6 0.584389 0.336342 0.584389 0.339106 0.581626 0.336342 191 191 191 255 
3 26 96 27 6 0.201219 0.382765 0.197480 0.379025 0.204959 0.379025 191 191 191 255 
3 31 27 96 6 0.217155 0.377072 0.212475 0.379025 0.213415 0.373332 191 191 191 255 
3 33 86 88 6 0.601301 0.322194 0.594135 0.324147 0.598538 0.319431 191 191 191 255 
3 98 97 100 6 0.843821 0.499023 0.848128 0.488781 0.852682 0.499023 191 191 191 255 
3 101 98 100 6 0.889267 0.497642 0.880406 0.488781 0.889267 0.488781 191 191 191 255 
3 102 98 101 6 0.330245 0.387886 0.330245 0.380406 0.333985 0.384146 191 191 191 255 
3 101 103 104 6 0.319431 0.366830 0.326911 0.366830 0.323171 0.370570 191 191 191 255 
3 102 101 104 6 0.356016 0.377072 0.359756 0.373332 0.363795 0.371365 191 191 191 255 
3 104 103 105 6 0.997642 0.511219 0.988781 0.511219 0.988781 0.502358 191 191 191 255 
3 106 107 105 6 0.368211 0.377072 0.371951 0.373332 0.373308 0.381408 191 191 191 255 
3 105 107 104 6 0.379025 0.368211 0.382765 0.371951 0.379025 0.375691 191 191 191 255 
3 106 108 107 6 0.404797 0.379025 0.412277 0.379025 0.408537 0.382765 191 191 191 255 
3 109 107 108 6 0.448862 0.379025 0.445122 0.382765 0.441382 0.379025 191 191 191 255 
3 110 111 108 6 0.002358 0.464391 0.011219 0.464391 0.013172 0.470113 191 191 191 255 
3 111 109 108 6 0.440001 0.368211 0.443741 0.371951 0.440001 0.375691 191 191 191 255 
3 171 111 110 6 0.452196 0.387886 0.452196 0.380406 0.455936 0.384146 191 191 191 255 
3 113 114 115 6 0.522033 0.379025 0.518293 0.382765 0.514553 0.379025 191 191 191 255 
3 117 118 116 6 0.135123 0.473252 0.135123 0.464391 0.143984 0.464391 191 191 191 255 
3 116 118 119 6 0.537562 0.387886 0.537562 0.380406 0.543739 0.386583 191 191 191 255 
3 116 119 114 6 0.558618 0.389267 0.551138 0.389267 0.554878 0.385527 191 191 191 255 
3 120 118 117 6 0.547804 0.375691 0.544064 0.371951 0.547804 0.368211 191 191 191 255 
3 120 121 122 6 0.583008 0.377072 0.575528 0.377072 0.579268 0.373332 191 191 191 255 
3 121 123 122 6 0.622928 0.380406 0.626668 0.384146 0.625604 0.382330 191 191 191 255 
3 124 125 123 6 0.612114 0.366830 0.619594 0.366830 0.615854 0.370570 191 191 191 255 
3 125 126 123 6 0.643984 0.366830 0.640244 0.370570 0.636504 0.366830 191 191 191 255 
3 128 125 127 6 0.668374 0.379025 0.661653 0.388508 0.660894 0.379025 191 191 191 255 
3 128 127 182 6 0.659513 0.387886 0.659513 0.380406 0.663253 0.384146 191 191 191 255 
3 128 129 125 6 0.659513 0.368211 0.663253 0.371951 0.659513 0.375691 191 191 191 255 
3 182 130 128 6 0.685284 0.379025 0.692764 0.379025 0.685612 0.382115 191 191 191 255 
3 128 130 131 6 0.683903 0.375691 0.683903 0.368211 0.687643 0.371951 191 191 191 255 
3 132 131 130 6 0.488781 0.485447 0.488781 0.476586 0.494626 0.474633 191 191 191 255 
3 132 99 131 6 0.697480 0.377072 0.701219 0.373332 0.700447 0.379025 191 191 191 255 
3 133 97 98 6 0.523414 0.473252 0.514553 0.464391 0.523414 0.464391 191 191 191 255 
3 99 133 134 6 0.610733 0.319431 0.613496 0.322194 0.610733 0.322194 191 191 191 255 
3 97 133 99 6 0.758455 0.379025 0.765935 0.379025 0.762195 0.382765 191 191 191 255 
3 102 133 98 6 0.770650 0.389267 0.774390 0.385527 0.777107 0.385482 191 191 191 255 
3 135 133 102 6 0.767316 0.368211 0.767316 0.375691 0.763576 0.371951 191 191 191 255 
3 136 102 104 6 0.790325 0.366830 0.786585 0.370570 0.782845 0.366830 191 191 191 255 
3 135 102 136 6 0.839106 0.379025 0.835366 0.382765 0.831626 0.379025 191 191 191 255 
3 136 104 107 6 0.863496 0.379025 0.859756 0.382765 0.856016 0.379025 191 191 191 255 
3 136 107 137 6 0.854635 0.387886 0.854635 0.380406 0.865427 0.383846 191 191 191 255 
3 137 107 109 6 0.901462 0.375691 0.897723 0.371951 0.901462 0.368211 191 191 191 255 
3 138 109 111 6 0.936667 0.389267 0.929187 0.389267 0.932927 0.385527 191 191 191 255 
3 109 138 139 6 0.941382 0.366830 0.948862 0.366830 0.945122 0.370570 191 191 191 255 
3 138 111 112 6 0.961057 0.366830 0.957317 0.370570 0.953577 0.366830 191 191 191 255 
3 138 112 115 6 0.965772 0.366830 0.972372 0.370472 0.969512 0.370570 191 191 191 255 
3 113 115 112 6 0.587723 0.464391 0.596584 0.464391 0.598538 0.468088 191 191 191 255 
3 140 138 115 6 0.997642 0.379025 0.993902 0.382765 0.990163 0.379025 191 191 191 255 
3 115 114 141 6 0.011219 0.356016 0.011219 0.363496 0.007479 0.359756 191 191 191 255 
3 115 141 140 6 0.002358 0.342440 0.009365 0.345675 0.006098 0.346180 191 191 191 255 
3 119 118 142 6 0.680569 0.464391 0.671708 0.473252 0.671708 0.464391 191 191 191 255 
3 120 142 118 6 0.074147 0.356016 0.077887 0.359756 0.074147 0.363496 191 191 191 255 
3 120 155 142 6 0.096584 0.363496 0.093365 0.363039 0.093632 0.356206 191 191 191 255 
3 122 155 120 6 0.137815 0.358708 0.143984 0.354635 0.140244 0.358375 191 191 191 255 
3 143 155 122 6 0.124309 0.342440 0.131424 0.345567 0.123620 0.350609 191 191 191 255 
3 126 122 123 6 0.168374 0.364877 0.160894 0.364877 0.164634 0.361137 191 191 191 255 
3 143 122 126 6 0.169755 0.363496 0.166015 0.359756 0.165951 0.357058 191 191 191 255 
3 125 129 126 6 0.194145 0.363496 0.190405 0.359756 0.191186 0.356213 191 191 191 255 
3 128 159 129 6 0.255121 0.363496 0.251381 0.359756 0.257074 0.360178 191 191 191 255 
3 128 144 159 6 0.305855 0.363496 0.303901 0.360850 0.309595 0.359756 191 191 191 255 
3 131 144 128 6 0.302520 0.364877 0.295041 0.364877 0.298780 0.361137 191 191 191 255 
3 144 131 99 6 0.326911 0.352682 0.320449 0.348902 0.323171 0.348942 191 191 191 255 
3 99 134 144 6 0.616830 0.320813 0.614877 0.318944 0.619594 0.318050 191 191 191 255 
3 146 134 145 6 0.863496 0.305855 0.860733 0.308618 0.860733 0.305855 191 191 191 255 
3 147 134 146 6 0.854635 0.307236 0.854845 0.311952 0.854635 0.309999 191 191 191 255 
3 148 135 136 6 0.875691 0.293660 0.872928 0.296423 0.872928 0.293660 191 191 191 255 
3 136 137 149 6 0.635123 0.326911 0.635123 0.324147 0.637886 0.324147 191 191 191 255 
3 136 149 148 6 0.892602 0.316097 0.897318 0.313342 0.895365 0.316097 191 191 191 255 
3 137 139 150 6 0.913658 0.314716 0.910894 0.311952 0.913658 0.311952 191 191 191 255 
3 139 138 151 6 0.912277 0.293660 0.909513 0.296423 0.909513 0.293660 191 191 191 255 
3 139 151 150 6 0.942764 0.309999 0.940001 0.309999 0.940001 0.307236 191 191 191 255 
3 138 152 151 6 0.944145 0.296423 0.942047 0.297087 0.944145 0.293660 191 191 191 255 
3 138 140 152 6 0.952196 0.295041 0.954959 0.297804 0.952196 0.297804 191 191 191 255 
3 141 153 140 6 0.961057 0.303901 0.958294 0.303901 0.958294 0.301138 191 191 191 255 
3 152 140 153 6 0.965772 0.316097 0.970489 0.315592 0.968536 0.316097 191 191 191 255 
3 141 142 153 6 0.994879 0.301138 0.997642 0.303901 0.994879 0.303901 191 191 191 255 
3 154 153 142 6 0.996260 0.299757 0.999023 0.299757 0.999023 0.302520 191 191 191 255 
3 155 154 142 6 0.984065 0.299757 0.989132 0.297001 0.986828 0.302520 191 191 191 255 
3 143 156 154 6 0.020650 0.285609 0.023414 0.282845 0.023414 0.285609 191 191 191 255 
3 143 154 155 6 0.028130 0.285609 0.025367 0.285609 0.029238 0.281464 191 191 191 255 
3 143 126 156 6 0.031464 0.288943 0.034228 0.291706 0.031464 0.291706 191 191 191 255 
3 126 158 157 6 0.057236 0.273414 0.059999 0.270650 0.059999 0.273414 191 191 191 255 
3 158 159 160 6 0.076911 0.275367 0.074147 0.278130 0.074147 0.275367 191 191 191 255 
3 158 160 157 6 0.093821 0.275367 0.096584 0.275367 0.093084 0.279511 191 191 191 255 
3 161 160 159 6 0.106016 0.287562 0.108780 0.287562 0.108780 0.290325 191 191 191 255 
3 161 159 144 6 0.690001 0.325528 0.692764 0.328292 0.688048 0.332122 191 191 191 255 
3 134 147 144 6 0.120975 0.270650 0.120975 0.273414 0.118211 0.273414 191 191 191 255 
3 161 144 147 6 0.119594 0.281464 0.114877 0.282079 0.116830 0.281464 191 191 191 255 
3 100 97 163 6 0.770650 0.476586 0.786485 0.476586 0.779511 0.485447 191 191 191 255 
3 166 100 162 6 0.950243 0.685284 0.950243 0.704960 0.940405 0.695122 191 191 191 255 
3 166 101 100 6 0.864877 0.477967 0.864877 0.486828 0.856016 0.486828 191 191 191 255 
3 163 162 100 6 0.023414 0.660894 0.023414 0.680569 0.013576 0.670732 191 191 191 255 
3 166 167 103 6 0.900081 0.464391 0.891220 0.473252 0.891220 0.464391 191 191 191 255 
3 166 103 101 6 0.363496 0.352682 0.356016 0.352682 0.359756 0.348942 191 191 191 255 
3 168 106 105 6 0.990163 0.476586 0.999023 0.476586 0.999023 0.485447 191 191 191 255 
3 103 168 105 6 0.000977 0.441382 0.009837 0.450243 0.000977 0.450243 191 191 191 255 
3 103 167 168 6 0.046423 0.462438 0.037562 0.462438 0.035609 0.457112 191 191 191 255 
3 169 108 106 6 0.074147 0.441382 0.083008 0.450243 0.074147 0.450243 191 191 191 255 
3 106 170 169 6 0.075528 0.440001 0.084389 0.440001 0.084389 0.448862 191 191 191 255 
3 53 171 110 6 0.119594 0.659513 0.115486 0.666383 0.099919 0.659513 191 191 191 255 
3 108 169 110 6 0.135123 0.448862 0.135123 0.440001 0.143984 0.440001 191 191 191 255 
3 53 110 170 6 0.171708 0.461057 0.171708 0.452196 0.180569 0.452196 191 191 191 255 
3 169 170 110 6 0.185284 0.450243 0.194145 0.441382 0.194145 0.450243 191 191 191 255 
3 113 112 172 6 0.185284 0.452196 0.198294 0.452196 0.194145 0.461057 191 191 191 255 
3 111 171 112 6 0.217155 0.462438 0.208294 0.462438 0.206341 0.457385 191 191 191 255 
3 172 112 171 6 0.218536 0.461057 0.209675 0.452196 0.218536 0.452196 191 191 191 255 
3 173 174 113 6 0.368211 0.352682 0.371951 0.348942 0.375691 0.352682 191 191 191 255 
3 113 172 173 6 0.279511 0.453577 0.279511 0.462438 0.270650 0.462438 191 191 191 255 
3 117 116 175 6 0.291706 0.680569 0.281869 0.670732 0.291706 0.660894 191 191 191 255 
3 176 117 177 6 0.316097 0.660894 0.316097 0.680569 0.306259 0.670732 191 191 191 255 
3 176 120 117 6 0.380406 0.352682 0.384146 0.348942 0.387886 0.352682 191 191 191 255 
3 175 177 117 6 0.319431 0.659513 0.336423 0.664958 0.329268 0.669351 191 191 191 255 
3 121 179 178 6 0.453577 0.450243 0.457219 0.440001 0.469730 0.450243 191 191 191 255 
3 176 121 120 6 0.380406 0.354635 0.387886 0.354635 0.384146 0.358375 191 191 191 255 
3 179 121 176 6 0.486828 0.461057 0.484336 0.450243 0.486828 0.452196 191 191 191 255 
3 178 180 121 6 0.387886 0.342440 0.384146 0.346180 0.380406 0.342440 191 191 191 255 
3 181 124 123 6 0.619594 0.452196 0.610733 0.461057 0.610733 0.452196 191 191 191 255 
3 125 124 127 6 0.692764 0.450243 0.683903 0.450243 0.689246 0.440001 191 191 191 255 
3 124 181 182 6 0.534228 0.659513 0.517157 0.676584 0.514553 0.659513 191 191 191 255 
3 124 182 127 6 0.709675 0.462438 0.718536 0.453577 0.718536 0.462438 191 191 191 255 
3 184 183 77 6 0.558618 0.681950 0.538943 0.681950 0.548781 0.672113 191 191 191 255 
3 130 183 184 6 0.730731 0.461057 0.721870 0.452196 0.738348 0.450243 191 191 191 255 
3 182 183 130 6 0.734065 0.462438 0.742926 0.453577 0.742926 0.462438 191 191 191 255 
3 182 77 183 6 0.608779 0.680569 0.598942 0.670732 0.608779 0.660894 191 191 191 255 
3 165 132 184 6 0.778130 0.440001 0.769269 0.448862 0.769269 0.440001 191 191 191 255 
3 132 130 184 6 0.839106 0.450243 0.823588 0.450243 0.830245 0.441382 191 191 191 255 
3 39 186 185 6 0.757074 0.660894 0.762846 0.663904 0.757074 0.680569 191 191 191 255 
3 185 186 0 6 0.805855 0.660894 0.815692 0.670732 0.813047 0.676139 191 191 191 255 
3 186 35 0 6 0.863496 0.450243 0.854635 0.450243 0.854635 0.441382 191 191 191 255 
3 187 188 4 6 0.778130 0.877072 0.757074 0.877072 0.757074 0.856016 191 191 191 255 
3 4 188 0 6 0.974633 0.660894 0.974633 0.680569 0.964796 0.670732 191 191 191 255 
3 185 0 188 6 0.977967 0.681950 0.987805 0.672113 0.994483 0.676029 191 191 191 255 
3 3 6 189 6 0.877072 0.441382 0.877072 0.450243 0.868211 0.450243 191 191 191 255 
3 189 190 187 6 0.072194 0.636504 0.072194 0.656179 0.062357 0.646341 191 191 191 255 
3 4 189 187 6 0.096584 0.656179 0.086747 0.646341 0.096584 0.636504 191 191 191 255 
3 4 3 189 6 0.122928 0.636504 0.132765 0.646341 0.122928 0.656179 191 191 191 255 
3 191 6 7 6 0.171708 0.656179 0.185421 0.635123 0.181546 0.646341 191 191 191 255 
3 189 6 191 6 0.194145 0.636504 0.190999 0.655795 0.184308 0.646341 191 191 191 255 
3 190 189 191 6 0.218536 0.636504 0.218536 0.656179 0.208698 0.646341 191 191 191 255 
3 192 191 10 6 0.368211 0.657560 0.378049 0.647722 0.387886 0.657560 191 191 191 255 
3 195 193 192 6 0.392602 0.657560 0.402439 0.647722 0.407345 0.649866 191 191 191 255 
3 193 191 192 6 0.485447 0.635123 0.470518 0.650052 0.465772 0.635123 191 191 191 255 
3 10 191 7 6 0.511219 0.636504 0.508919 0.656641 0.501381 0.646341 191 191 191 255 
3 194 195 11 6 0.538943 0.657560 0.548781 0.647722 0.558618 0.657560 191 191 191 255 
3 194 196 195 6 0.612114 0.657560 0.621951 0.647722 0.628968 0.651977 191 191 191 255 
3 11 192 10 6 0.706340 0.636504 0.706340 0.656179 0.696503 0.646341 191 191 191 255 
3 195 192 11 6 0.708294 0.656179 0.708294 0.636504 0.718131 0.646341 191 191 191 255 
3 14 57 194 6 0.782845 0.657560 0.792683 0.647722 0.802520 0.657560 191 191 191 255 
3 14 194 11 6 0.852682 0.636504 0.846315 0.652574 0.842844 0.646341 191 191 191 255 
3 197 16 18 6 0.879025 0.656179 0.879025 0.636504 0.888863 0.646341 191 191 191 255 
3 58 197 18 6 0.901462 0.636504 0.901462 0.656179 0.891625 0.646341 191 191 191 255 
3 57 197 58 6 0.903416 0.656179 0.903416 0.636504 0.913253 0.646341 191 191 191 255 
3 14 197 57 6 0.950243 0.656179 0.940405 0.646341 0.943413 0.640572 191 191 191 255 
3 14 16 197 6 0.976586 0.636504 0.983794 0.640949 0.976586 0.656179 191 191 191 255 
3 20 199 18 6 0.124309 0.610733 0.138768 0.618711 0.134146 0.620570 191 191 191 255 
3 200 64 23 6 0.925853 0.875691 0.903416 0.869812 0.925853 0.854635 191 191 191 255 
3 23 64 21 6 0.241545 0.633170 0.221870 0.633170 0.224957 0.616582 191 191 191 255 
3 20 198 199 6 0.221870 0.610733 0.241545 0.610733 0.231707 0.620570 191 191 191 255 
3 21 64 198 6 0.022033 0.852682 0.000977 0.852682 0.000977 0.831626 191 191 191 255 
3 21 198 20 6 0.244879 0.631789 0.244879 0.612114 0.254716 0.621951 191 191 191 255 
3 23 24 201 6 0.339106 0.610733 0.329268 0.620570 0.318050 0.622534 191 191 191 255 
3 23 201 202 6 0.366830 0.612114 0.372839 0.615360 0.366830 0.631789 191 191 191 255 
3 202 200 23 6 0.075528 0.830245 0.096584 0.830245 0.096584 0.851301 191 191 191 255 
3 203 24 29 6 0.941382 0.450243 0.943948 0.444915 0.950243 0.450243 191 191 191 255 
3 203 201 24 6 0.559999 0.612114 0.559999 0.631789 0.550162 0.621951 191 191 191 255 
3 204 201 203 6 0.561952 0.631789 0.561952 0.612114 0.571790 0.621951 191 191 191 255 
3 29 206 203 6 0.685284 0.610733 0.704959 0.610733 0.689565 0.628889 191 191 191 255 
3 205 206 29 6 0.729350 0.633170 0.713745 0.626338 0.719512 0.623332 191 191 191 255 
3 205 29 28 6 0.732684 0.612114 0.742521 0.621951 0.739774 0.627461 191 191 191 255 
3 205 30 207 6 0.758455 0.610733 0.778130 0.610733 0.762610 0.617650 191 191 191 255 
3 205 207 208 6 0.826911 0.633170 0.809720 0.627924 0.817073 0.623332 191 191 191 255 
3 205 208 206 6 0.831626 0.610733 0.851301 0.610733 0.834840 0.616709 191 191 191 255 
3 28 30 205 6 0.997642 0.462438 0.988781 0.462438 0.988781 0.453577 191 191 191 255 
3 34 209 32 6 0.927806 0.631789 0.927806 0.612114 0.937643 0.621951 191 191 191 255 
3 32 209 210 6 0.974633 0.612114 0.974633 0.631789 0.964796 0.621951 191 191 191 255 
3 80 211 209 6 0.124309 0.830245 0.145365 0.830245 0.145365 0.851301 191 191 191 255 
3 211 210 209 6 0.169755 0.842698 0.147318 0.852682 0.147318 0.831626 191 191 191 255 
3 211 207 210 6 0.217155 0.852682 0.196099 0.852682 0.206459 0.830245 191 191 191 255 
3 30 32 210 6 0.025367 0.587723 0.031115 0.590710 0.025367 0.607399 191 191 191 255 
3 207 30 210 6 0.072194 0.607399 0.062357 0.597561 0.067042 0.590114 191 191 191 255 
3 186 34 35 6 0.986828 0.448862 0.977967 0.440001 0.986828 0.440001 191 191 191 255 
3 34 186 209 6 0.143984 0.586342 0.134146 0.596180 0.124309 0.586342 191 191 191 255 
3 80 209 186 6 0.169755 0.587723 0.169755 0.607399 0.159918 0.597561 191 191 191 255 
3 24 26 29 6 0.425853 0.343821 0.425853 0.351301 0.422113 0.347561 191 191 191 255 
3 97 99 165 6 0.730731 0.319431 0.730731 0.322194 0.727967 0.322194 191 191 191 255 
3 97 165 163 6 0.427806 0.351301 0.427806 0.343821 0.431546 0.347561 191 191 191 255 
3 164 163 165 6 0.440001 0.343821 0.443741 0.347561 0.443044 0.351020 191 191 191 255 
3 68 69 70 6 0.343821 0.608780 0.353659 0.598942 0.364384 0.606906 191 191 191 255 
3 113 174 114 6 0.773414 0.337723 0.773414 0.340487 0.770650 0.340487 191 191 191 255 
3 156 126 157 6 0.282845 0.242926 0.285609 0.240162 0.285609 0.242926 191 191 191 255 
3 164 165 81 6 0.156179 0.425853 0.147318 0.425853 0.147318 0.416992 191 191 191 255 
3 164 81 37 6 0.159513 0.429187 0.168374 0.438048 0.159513 0.438048 191 191 191 255 
3 173 212 174 6 0.525367 0.343821 0.529107 0.347561 0.525367 0.351301 191 191 191 255 
3 121 180 123 6 0.551138 0.342440 0.558618 0.342440 0.554878 0.346180 191 191 191 255 
3 80 39 81 6 0.376668 0.597561 0.366830 0.607399 0.366830 0.587723 191 191 191 255 
3 132 165 99 6 0.886504 0.322194 0.889267 0.319431 0.889267 0.322194 191 191 191 255 
3 36 33 88 6 0.398699 0.285609 0.401462 0.282845 0.401462 0.285609 191 191 191 255 
3 116 114 174 6 0.933903 0.337723 0.936667 0.340487 0.933903 0.340487 191 191 191 255 
3 146 161 147 6 0.350225 0.153483 0.352682 0.153416 0.354635 0.155543 191 191 191 255 
3 119 141 114 6 0.965772 0.328292 0.970489 0.325927 0.968536 0.328292 191 191 191 255 
3 137 150 149 6 0.431950 0.223252 0.429187 0.220489 0.431950 0.220489 191 191 191 255 
3 79 81 165 6 0.366830 0.416992 0.375378 0.427806 0.366830 0.425853 191 191 191 255 
3 175 116 174 6 0.757074 0.356016 0.760814 0.359756 0.761909 0.361423 191 191 191 255 
3 175 174 212 6 0.757074 0.351301 0.757074 0.343821 0.760814 0.347561 191 191 191 255 
3 181 123 180 6 0.793659 0.363496 0.793659 0.356016 0.797399 0.359756 191 191 191 255 
3 199 58 18 6 0.392602 0.415611 0.401462 0.415611 0.403416 0.423506 191 191 191 255 
3 39 185 38 6 0.318108 0.852682 0.319431 0.830245 0.340487 0.830245 191 191 191 255 
3 41 188 187 6 0.451574 0.852682 0.441382 0.830245 0.462438 0.830245 191 191 191 255 
3 38 188 41 6 0.486828 0.851301 0.464391 0.841583 0.486828 0.830245 191 191 191 255 
3 185 188 38 6 0.656179 0.852682 0.635123 0.852682 0.649457 0.830245 191 191 191 255 
3 190 45 187 6 0.826911 0.852682 0.805855 0.852682 0.805855 0.831626 191 191 191 255 
3 41 187 43 6 0.929187 0.830245 0.950243 0.830245 0.935049 0.852682 191 191 191 255 
3 45 43 187 6 0.976586 0.831626 0.997642 0.852682 0.976586 0.852682 191 191 191 255 
3 45 190 193 6 0.636504 0.586342 0.656179 0.586342 0.646341 0.596180 191 191 191 255 
3 193 49 46 6 0.729350 0.608780 0.709675 0.608780 0.719512 0.598942 191 191 191 255 
3 195 49 193 6 0.659513 0.807236 0.680569 0.828292 0.659513 0.828292 191 191 191 255 
3 54 195 196 6 0.757074 0.807236 0.779511 0.813065 0.757074 0.828292 191 191 191 255 
3 54 51 195 6 0.903416 0.807236 0.924472 0.828292 0.903416 0.828292 191 191 191 255 
3 49 195 51 6 0.904797 0.805855 0.925853 0.805855 0.925853 0.826911 191 191 191 255 
3 57 54 194 6 0.098538 0.782845 0.120975 0.796547 0.098538 0.803901 191 191 191 255 
3 56 54 57 6 0.196099 0.782845 0.217155 0.803901 0.196099 0.803901 191 191 191 255 
3 194 54 196 6 0.392602 0.781464 0.413658 0.781464 0.413658 0.802520 191 191 191 255 
3 57 58 56 6 0.830245 0.587723 0.840082 0.597561 0.830245 0.607399 191 191 191 255 
3 198 60 199 6 0.730731 0.802520 0.708294 0.790309 0.730731 0.781464 191 191 191 255 
3 63 198 64 6 0.026748 0.757074 0.047804 0.757074 0.038867 0.779511 191 191 191 255 
3 60 198 63 6 0.122928 0.758455 0.145365 0.757995 0.122928 0.779511 191 191 191 255 
3 66 200 202 6 0.586342 0.758455 0.607398 0.779511 0.586342 0.779511 191 191 191 255 
3 203 69 67 6 0.977967 0.608780 0.987805 0.598942 0.997642 0.608780 191 191 191 255 
3 203 67 204 6 0.999023 0.587723 0.999023 0.607399 0.989186 0.597561 191 191 191 255 
3 202 204 67 6 0.826911 0.779511 0.805855 0.779511 0.805855 0.758455 191 191 191 255 
3 202 67 66 6 0.828292 0.778130 0.807236 0.757074 0.828292 0.757074 191 191 191 255 
3 201 204 202 6 0.889091 0.779511 0.880406 0.757074 0.901462 0.757074 191 191 191 255 
3 73 71 206 6 0.118568 0.755121 0.099919 0.732684 0.120975 0.732684 191 191 191 255 
3 206 71 69 6 0.143984 0.755121 0.122928 0.755121 0.122928 0.734065 191 191 191 255 
3 206 69 203 6 0.145365 0.753740 0.124309 0.732684 0.145365 0.732684 191 191 191 255 
3 75 73 208 6 0.217155 0.755121 0.196099 0.755121 0.196099 0.734065 191 191 191 255 
3 75 208 207 6 0.218536 0.753740 0.197480 0.732684 0.218536 0.732684 191 191 191 255 
3 208 73 206 6 0.099919 0.584389 0.109756 0.574552 0.115135 0.577168 191 191 191 255 
3 75 211 78 6 0.645967 0.755121 0.636504 0.732684 0.657560 0.732684 191 191 191 255 
3 80 78 211 6 0.704959 0.755121 0.683903 0.755121 0.696938 0.732684 191 191 191 255 
3 211 75 207 6 0.877072 0.740871 0.854635 0.755121 0.854635 0.734065 191 191 191 255 
3 186 39 80 6 0.119594 0.561952 0.109756 0.571790 0.099919 0.561952 191 191 191 255 
3 45 193 46 6 0.217155 0.561952 0.207317 0.571790 0.197480 0.561952 191 191 191 255 
3 190 191 193 6 0.485447 0.438048 0.476586 0.438048 0.476586 0.429187 191 191 191 255 
3 199 60 58 6 0.596584 0.429187 0.596584 0.438048 0.587723 0.438048 191 191 191 255 
3 133 145 134 6 0.287562 0.313333 0.290325 0.316097 0.287562 0.316097 191 191 191 255 
3 139 137 109 6 0.334389 0.296423 0.331626 0.293660 0.334389 0.293660 191 191 191 255 
3 119 142 141 6 0.392602 0.293660 0.395365 0.293660 0.397318 0.295243 191 191 191 255 
3 158 126 129 6 0.476586 0.295041 0.476616 0.297732 0.476586 0.297804 191 191 191 255 
3 158 129 159 6 0.490163 0.303901 0.494879 0.303320 0.492926 0.303901 191 191 191 255 
3 149 150 151 6 0.814716 0.269269 0.815239 0.271508 0.811952 0.269269 191 191 191 255 
3 162 37 40 6 0.412277 0.584389 0.392602 0.584389 0.402439 0.574552 191 191 191 255 
3 164 37 162 6 0.392602 0.561952 0.409344 0.567647 0.393980 0.566093 191 191 191 255 
3 164 162 163 6 0.416992 0.561952 0.436667 0.561952 0.426829 0.571790 191 191 191 255 
3 166 162 40 6 0.217155 0.730731 0.196099 0.730731 0.196099 0.709675 191 191 191 255 
3 166 40 44 6 0.218536 0.729350 0.197480 0.708294 0.218536 0.708294 191 191 191 255 
3 166 44 167 6 0.660894 0.561952 0.679356 0.565928 0.663067 0.566887 191 191 191 255 
3 167 47 168 6 0.875691 0.584389 0.856016 0.584389 0.865854 0.574552 191 191 191 255 
3 167 44 47 6 0.925853 0.583008 0.916015 0.573171 0.916876 0.566484 191 191 191 255 
3 48 170 106 6 0.022033 0.559999 0.002358 0.559999 0.012195 0.550162 191 191 191 255 
3 50 170 48 6 0.002358 0.537562 0.016865 0.545492 0.001342 0.539308 191 191 191 255 
3 170 50 53 6 0.148699 0.559999 0.158537 0.550162 0.168374 0.559999 191 191 191 255 
3 171 52 55 6 0.265935 0.537562 0.256098 0.547399 0.246260 0.537562 191 191 191 255 
3 171 55 172 6 0.269269 0.558618 0.269269 0.538943 0.279107 0.548781 191 191 191 255 
3 171 53 52 6 0.295041 0.559999 0.304878 0.550162 0.314716 0.559999 191 191 191 255 
3 56 212 173 6 0.718536 0.429187 0.718536 0.438048 0.709675 0.438048 191 191 191 255 
3 172 55 173 6 0.438048 0.558618 0.428210 0.548781 0.432583 0.541646 191 191 191 255 
3 55 56 173 6 0.440001 0.538943 0.446263 0.542443 0.440001 0.558618 191 191 191 255 
3 175 61 62 6 0.490163 0.537562 0.509838 0.537562 0.500000 0.547399 191 191 191 255 
3 63 65 177 6 0.929187 0.708294 0.950243 0.708294 0.950243 0.729350 191 191 191 255 
3 63 177 62 6 0.051138 0.683903 0.072194 0.683903 0.072194 0.704960 191 191 191 255 
3 175 62 177 6 0.757074 0.558618 0.757074 0.538943 0.766912 0.548781 191 191 191 255 
3 213 176 65 6 0.758455 0.559999 0.768293 0.550162 0.774355 0.553462 191 191 191 255 
3 178 179 176 6 0.782845 0.559999 0.792683 0.550162 0.802520 0.559999 191 191 191 255 
3 178 176 213 6 0.803901 0.538943 0.803901 0.558618 0.794064 0.548781 191 191 191 255 
3 177 65 176 6 0.244879 0.685284 0.265935 0.706341 0.244879 0.706341 191 191 191 255 
3 68 70 213 6 0.901462 0.558618 0.891625 0.548781 0.901462 0.538943 191 191 191 255 
3 180 178 213 6 0.002358 0.535609 0.012195 0.525771 0.022033 0.535609 191 191 191 255 
3 65 68 213 6 0.291706 0.697005 0.269269 0.706341 0.269269 0.685284 191 191 191 255 
3 72 181 180 6 0.122928 0.534228 0.122928 0.514553 0.132765 0.524390 191 191 191 255 
3 181 72 76 6 0.270650 0.535609 0.280488 0.525771 0.290325 0.535609 191 191 191 255 
3 181 76 182 6 0.291706 0.514553 0.291706 0.534228 0.281869 0.524390 191 191 191 255 
3 74 76 72 6 0.339106 0.513172 0.329268 0.523009 0.319431 0.513172 191 191 191 255 
3 184 77 78 6 0.413658 0.514553 0.406062 0.529394 0.403820 0.524390 191 191 191 255 
3 182 76 77 6 0.441382 0.535609 0.451219 0.525771 0.457136 0.528925 191 191 191 255 
3 74 77 76 6 0.486828 0.704960 0.462438 0.683870 0.486828 0.683903 191 191 191 255 
3 79 165 184 6 0.587723 0.535609 0.597561 0.525771 0.607398 0.535609 191 191 191 255 
3 78 79 184 6 0.612114 0.535609 0.621951 0.525771 0.631789 0.535609 191 191 191 255 
3 168 47 106 6 0.755121 0.416992 0.755121 0.425853 0.752458 0.427806 191 191 191 255 
3 48 106 47 6 0.753740 0.415611 0.744879 0.424472 0.744879 0.415611 191 191 191 255 
3 56 59 212 6 0.802520 0.415611 0.791706 0.424524 0.793659 0.415611 191 191 191 255 
3 213 70 180 6 0.826911 0.438048 0.818050 0.438048 0.809386 0.426719 191 191 191 255 
3 37 81 39 6 0.730731 0.514553 0.721570 0.527829 0.714629 0.520888 191 191 191 255 
3 61 212 59 6 0.880406 0.415611 0.889267 0.415611 0.889267 0.424472 191 191 191 255 
3 61 175 212 6 0.925853 0.416992 0.925853 0.425853 0.918545 0.432693 191 191 191 255 
3 72 180 70 6 0.948862 0.415611 0.938048 0.423927 0.940001 0.415611 191 191 191 255 
3 148 146 145 6 0.002358 0.267316 0.005121 0.264553 0.005121 0.267316 191 191 191 255 
3 148 145 135 6 0.023414 0.253740 0.020650 0.250977 0.023414 0.250977 191 191 191 255 
3 135 145 133 6 0.636504 0.293660 0.639267 0.293660 0.639267 0.296423 191 191 191 255 
3 89 214 90 6 0.314716 0.108780 0.311952 0.108780 0.311952 0.106016 191 191 191 255 
3 215 90 214 6 0.070813 0.208294 0.066097 0.209928 0.068050 0.208294 191 191 191 255 
3 84 93 214 6 0.507074 0.162277 0.507074 0.159513 0.509838 0.159513 191 191 191 255 
3 214 87 88 6 0.147318 0.214391 0.150081 0.214391 0.147318 0.217155 191 191 191 255 
3 89 82 87 6 0.351301 0.318050 0.347561 0.321790 0.343821 0.318050 191 191 191 255 
3 214 89 87 6 0.068050 0.264553 0.070813 0.267316 0.068050 0.267316 191 191 191 255 
3 215 83 90 6 0.685284 0.316097 0.690001 0.314778 0.688048 0.316097 191 191 191 255 
3 91 83 215 6 0.702196 0.303901 0.702196 0.301138 0.704959 0.303901 191 191 191 255 
3 92 91 215 6 0.697480 0.293660 0.700243 0.293660 0.702196 0.294274 191 191 191 255 
3 92 215 214 6 0.104635 0.252358 0.107398 0.255121 0.104635 0.255121 191 191 191 255 
3 214 93 92 6 0.171708 0.204960 0.171708 0.202196 0.174472 0.202196 191 191 191 255 
3 84 214 94 6 0.145365 0.258455 0.145365 0.261219 0.142602 0.261219 191 191 191 255 
3 214 95 94 6 0.186667 0.200243 0.183903 0.200243 0.183903 0.197480 191 191 191 255 
3 96 95 214 6 0.197480 0.206341 0.200243 0.203577 0.200243 0.206341 191 191 191 255 
3 31 96 86 6 0.757074 0.314716 0.757074 0.311952 0.759740 0.309999 191 191 191 255 
3 86 214 88 6 0.202196 0.252358 0.204959 0.255121 0.202196 0.255121 191 191 191 255 
3 96 214 86 6 0.211057 0.263172 0.208294 0.265935 0.208294 0.263172 191 191 191 255 
3 25 95 26 6 0.244879 0.197480 0.247642 0.200243 0.244879 0.200243 191 191 191 255 
3 157 160 161 6 0.777991 0.230734 0.799757 0.227967 0.801501 0.233703 191 191 191 255 
3 148 156 157 6 0.825894 0.228501 0.821827 0.228304 0.826953 0.228574 191 191 191 255 
3 152 156 148 6 0.886320 0.253357 0.885087 0.252789 0.887863 0.251494 191 191 191 255 
3 152 154 156 6 0.888497 0.265268 0.880998 0.271050 0.881510 0.261998 191 191 191 255 
3 146 148 161 6 0.350225 0.153483 0.455476 0.176202 0.352682 0.153416 191 191 191 255 
3 149 152 148 6 0.858764 0.251069 0.859191 0.251756 0.856028 0.251647 191 191 191 255 
3 151 152 149 6 0.850703 0.262018 0.851936 0.255774 0.854379 0.255141 191 191 191 255 
3 148 157 161 6 0.868973 0.260202 0.869334 0.259849 0.929188 0.269269 191 191 191 255 
3 152 153 154 6 0.796529 0.237740 0.770654 0.237925 0.771622 0.239761 191 191 191 255 
