# Blender v3.0.1 OBJ File: ''
# www.blender.org
mtllib motor_gear.mtl
o B4018_MotorPinionSimplified
v 0.003516 -0.000203 -0.002366
v -0.003484 -0.000203 -0.002366
v 0.003516 -0.000203 0.002366
v -0.003484 -0.000203 0.002366
v 0.003516 -0.001530 0.001817
v 0.003516 -0.001817 0.001530
v -0.003484 -0.001530 0.001817
v -0.003484 -0.001817 0.001530
v 0.003516 -0.000718 0.002264
v 0.003516 -0.001093 0.002108
v -0.003484 -0.000718 0.002264
v -0.003484 -0.001093 0.002108
v 0.003516 0.000203 -0.002366
v 0.003516 -0.002108 0.001093
v -0.003484 0.000203 -0.002366
v 0.003516 -0.002264 0.000718
v -0.003484 -0.002108 0.001093
v -0.003484 -0.002264 0.000718
v 0.003516 -0.002366 0.000203
v 0.003516 -0.002366 -0.000203
v -0.003484 -0.002366 0.000203
v -0.003484 -0.002366 -0.000203
v 0.003516 -0.002264 -0.000718
v 0.003516 -0.002108 -0.001093
v -0.003484 -0.002264 -0.000718
v -0.003484 -0.002108 -0.001093
v 0.003516 -0.001817 -0.001530
v 0.003516 -0.001530 -0.001817
v -0.003484 -0.001817 -0.001530
v -0.003484 -0.001530 -0.001817
v 0.003516 -0.001323 -0.001023
v 0.003516 -0.001023 -0.001323
v 0.003516 -0.000831 -0.001452
v 0.003516 0.000203 0.002366
v 0.003516 -0.000439 -0.001614
v -0.003484 0.000203 0.002366
v 0.003516 0.001530 0.001817
v 0.003516 0.001817 0.001530
v -0.003484 0.001530 0.001817
v -0.003484 0.001817 0.001530
v 0.003516 0.000718 0.002264
v 0.003516 0.001093 0.002108
v -0.003484 0.000718 0.002264
v -0.003484 0.001093 0.002108
v 0.003516 0.002108 0.001093
v 0.003516 0.002264 0.000718
v -0.003484 0.002108 0.001093
v -0.003484 0.002264 0.000718
v 0.003516 0.002366 0.000203
v 0.003516 0.002366 -0.000203
v -0.003484 0.002366 0.000203
v -0.003484 0.002366 -0.000203
v 0.003516 0.002264 -0.000718
v 0.003516 0.002108 -0.001093
v -0.003484 0.002264 -0.000718
v -0.003484 0.002108 -0.001093
v 0.003516 0.001817 -0.001530
v 0.003516 0.001530 -0.001817
v -0.003484 0.001817 -0.001530
v -0.003484 0.001530 -0.001817
v 0.003516 -0.001359 -0.001689
v 0.003516 0.001323 -0.001023
v 0.003516 0.001023 -0.001323
v 0.003516 -0.001692 -0.001361
v 0.003516 -0.001451 -0.000831
v 0.003516 -0.001614 -0.000439
v 0.003516 -0.001023 0.001323
v 0.003516 0.000831 -0.001452
v 0.003516 0.000439 -0.001614
v 0.003516 0.001359 -0.001689
v 0.003516 0.001692 -0.001361
v 0.003516 0.001451 -0.000831
v 0.003516 0.001614 -0.000439
v 0.003516 0.001023 0.001323
v 0.003516 0.001323 0.001023
v 0.003516 0.000831 0.001451
v 0.003516 -0.001323 0.001023
v 0.003516 -0.000831 0.001451
v 0.003516 -0.000234 -0.002159
v 0.003516 0.000234 -0.002159
v 0.003516 -0.000609 -0.002081
v 0.003516 -0.001042 -0.001905
v 0.003516 -0.000718 -0.002264
v 0.003516 -0.001093 -0.002108
v 0.003516 -0.001689 0.001359
v 0.003516 -0.001361 0.001692
v 0.003516 -0.001041 0.001902
v 0.003516 -0.000610 0.002084
v 0.003516 -0.001659 -0.000212
v 0.003516 0.000609 -0.002081
v 0.003516 0.001042 -0.001905
v 0.003516 0.000718 -0.002264
v 0.003516 0.001093 -0.002108
v 0.003516 -0.001452 0.000831
v 0.003516 0.001689 0.001359
v 0.003516 0.001361 0.001692
v 0.003516 0.001041 0.001902
v 0.003516 0.000610 0.002084
v 0.003516 -0.001614 0.000439
v 0.003516 0.001659 -0.000212
v 0.003516 0.001452 0.000831
v 0.003516 0.001614 0.000439
v 0.003516 0.000439 0.001614
v 0.003516 -0.000439 0.001614
v 0.003516 -0.001902 -0.001041
v 0.003516 -0.002084 -0.000610
v 0.003516 -0.001659 0.000212
v 0.003516 -0.002155 -0.000234
v 0.003516 -0.002159 0.000234
v 0.003516 -0.002081 0.000609
v 0.003516 -0.001905 0.001042
v 0.003516 -0.000208 0.001618
v 0.003516 0.001902 -0.001041
v 0.003516 0.002084 -0.000610
v 0.003516 0.001659 0.000212
v 0.003516 0.002155 -0.000234
v 0.003516 0.002159 0.000234
v 0.003516 0.002081 0.000609
v 0.003516 0.001905 0.001042
v 0.003516 0.000208 0.001618
v 0.003516 -0.000234 0.002155
v -0.003484 -0.001661 0.000211
v 0.003516 0.000234 0.002155
v -0.003484 -0.002159 0.000234
v -0.003484 -0.000440 0.001615
v -0.003484 -0.000210 0.001652
v -0.003484 -0.001692 -0.001361
v -0.003484 -0.001364 -0.001694
v -0.003484 -0.001323 -0.001025
v -0.003484 0.001661 0.000211
v -0.003484 -0.001025 -0.001324
v -0.003484 0.002159 0.000234
v -0.003484 -0.001324 0.001025
v -0.003484 -0.001616 0.000441
v -0.003484 -0.001453 0.000831
v -0.003484 -0.001905 0.001042
v -0.003484 -0.002087 0.000611
v -0.003484 -0.000831 -0.001453
v -0.003484 -0.002084 -0.000610
v -0.003484 -0.001908 -0.001043
v -0.003484 -0.001615 -0.000440
v -0.003484 -0.001454 -0.000831
v -0.003484 -0.002162 -0.000220
v -0.003484 -0.001661 -0.000211
v -0.003484 0.000440 0.001615
v -0.003484 -0.000435 -0.001602
v -0.003484 0.000210 0.001652
v -0.003484 0.001692 -0.001361
v -0.003484 0.001364 -0.001694
v -0.003484 0.001323 -0.001025
v -0.003484 0.001025 -0.001324
v -0.003484 -0.001093 -0.002108
v -0.003484 -0.000718 -0.002264
v -0.003484 -0.001042 -0.001905
v -0.003484 -0.000611 -0.002087
v -0.003484 -0.000207 -0.001620
v -0.003484 0.001324 0.001025
v -0.003484 0.001616 0.000441
v -0.003484 0.001453 0.000831
v -0.003484 0.001905 0.001042
v -0.003484 0.002087 0.000611
v -0.003484 0.000831 -0.001453
v -0.003484 -0.000234 -0.002159
v -0.003484 -0.000825 0.001440
v -0.003484 0.002084 -0.000610
v -0.003484 0.001908 -0.001043
v -0.003484 0.001615 -0.000440
v -0.003484 0.001454 -0.000831
v -0.003484 0.002162 -0.000220
v -0.003484 0.001661 -0.000211
v -0.003484 0.000435 -0.001602
v -0.003484 0.001093 -0.002108
v -0.003484 0.000718 -0.002264
v -0.003484 0.001042 -0.001905
v -0.003484 0.000611 -0.002087
v -0.003484 0.000207 -0.001620
v -0.003484 -0.001694 0.001364
v -0.003484 -0.001361 0.001692
v -0.003484 0.000234 -0.002159
v -0.003484 -0.000234 0.002162
v -0.003484 -0.001004 0.001288
v -0.003484 -0.000610 0.002084
v -0.003484 0.000825 0.001440
v -0.003484 0.001694 0.001364
v -0.003484 0.001361 0.001692
v -0.003484 -0.001043 0.001908
v -0.003484 0.000234 0.002162
v -0.003484 0.001004 0.001288
v -0.003484 0.000610 0.002084
v -0.003484 0.001043 0.001908
v 0.003516 -0.000208 -0.001618
v 0.003516 0.000208 -0.001618
vn -0.0000 -1.0000 0.0000
vn -0.0001 -0.3419 0.9398
vn 1.0000 0.0000 0.0000
vn -1.0000 -0.0000 0.0000
vn -0.0013 -0.7490 0.6625
vn -0.0001 -0.7374 -0.6754
vn -0.0001 -0.0439 -0.9990
vn 0.0002 -0.0787 -0.9969
vn 0.0003 -0.8301 0.5577
vn 0.0001 0.2460 -0.9693
vn 0.0001 0.5982 -0.8014
vn -0.0000 0.0000 1.0000
vn 0.0000 0.9895 -0.1449
vn -0.0001 0.9988 0.0491
vn -0.0000 -0.8587 0.5125
vn 0.0000 0.7071 0.7071
vn 0.0001 -0.9813 -0.1926
vn 0.0001 0.8593 -0.5115
vn 0.0000 0.9988 -0.0481
vn -0.0001 -0.7380 -0.6748
vn -0.0001 -0.4228 0.9062
vn -0.0001 0.9701 0.2428
vn 0.0000 0.9239 0.3827
vn -0.0002 -0.9989 0.0479
vn -0.0001 0.7374 -0.6754
vn -0.0001 0.5143 0.8576
vn -0.0000 -0.5150 -0.8572
vn 0.0001 -0.9803 0.1976
vn 0.0001 -0.5115 -0.8593
vn -0.0017 0.0179 -0.9998
vn -0.0001 0.9057 0.4238
vn -0.0001 -0.9062 -0.4228
vn -0.0001 -0.9402 0.3408
vn -0.0000 -0.9890 0.1478
vn 0.0001 0.5115 -0.8593
vn 0.0000 -0.5949 -0.8038
vn 0.0003 0.8301 0.5577
vn -0.0001 0.9062 -0.4228
vn -0.0001 0.4228 -0.9062
vn -0.0001 0.9062 0.4228
vn -0.0001 0.9398 0.3419
vn -0.0001 -0.3408 0.9402
vn -0.0001 -0.9062 0.4228
vn -0.0001 0.3411 -0.9400
vn 0.0000 0.8587 0.5125
vn -0.0001 -0.4236 -0.9059
vn 0.0001 0.9693 -0.2460
vn -0.0001 0.9399 -0.3414
vn 0.0000 0.5949 -0.8038
vn -0.0001 -0.3411 -0.9400
vn 0.0003 -0.8293 -0.5588
vn 0.0000 1.0000 0.0000
vn -0.0001 0.0438 0.9990
vn 0.0000 0.9703 -0.2420
vn 0.0000 0.9890 0.1478
vn 0.0003 0.9815 0.1913
vn 0.0000 0.3827 0.9239
vn -0.0001 -0.1469 0.9891
vn -0.0001 0.4228 0.9062
vn -0.0019 -0.1437 -0.9896
vn 0.0000 0.5150 -0.8572
vn -0.0000 -0.3827 -0.9239
vn -0.0019 0.1437 -0.9896
vn -0.0001 0.7374 0.6755
vn -0.0000 -0.8021 0.5972
vn -0.0000 -0.2420 -0.9703
vn -0.0001 -0.0438 0.9990
vn -0.0001 0.0450 0.9990
vn 0.0001 -0.5982 -0.8014
vn -0.0001 0.0439 -0.9990
vn -0.0000 -0.5125 0.8587
vn 0.0000 0.1449 0.9895
vn -0.0001 0.9989 -0.0468
vn -0.0013 0.7490 0.6625
vn 0.0001 -0.9896 0.1437
vn -0.0001 -0.4238 0.9057
vn 0.0000 0.7071 -0.7071
vn 0.0000 0.9239 -0.3827
vn -0.0001 -0.9060 -0.4233
vn 0.0000 0.9696 0.2448
vn -0.0001 -0.9891 -0.1469
vn -0.0001 -0.8033 0.5955
vn -0.0001 -0.9398 0.3419
vn -0.0001 0.9402 0.3408
vn 0.0001 0.5523 -0.8336
vn -0.0056 -0.6468 0.7627
vn 0.0001 -0.1589 0.9873
vn -0.0001 0.2428 0.9701
vn -0.0000 -0.9895 -0.1449
vn -0.0000 -0.9239 0.3827
vn -0.0001 -0.2428 0.9701
vn -0.0001 -0.6746 0.7382
vn 0.0001 0.9803 0.1976
vn -0.0000 -0.9696 0.2448
vn 0.0003 0.8293 -0.5588
vn 0.0000 0.0000 -1.0000
vn 0.0001 -0.2460 -0.9693
vn 0.0000 -0.3827 0.9239
vn 0.0000 0.2420 -0.9703
vn 0.0003 0.5577 -0.8301
vn -0.0001 0.1469 0.9891
vn -0.0001 0.5955 0.8033
vn 0.0000 0.8038 -0.5949
vn -0.0001 -0.0450 0.9990
vn 0.0000 0.5972 0.8021
vn -0.0017 -0.0179 -0.9998
vn 0.0000 0.8021 0.5972
vn 0.0001 0.8329 -0.5535
vn -0.0001 0.7380 -0.6748
vn -0.0021 0.0166 -0.9999
vn -0.0001 -0.9057 0.4238
vn 0.0003 -0.9800 -0.1989
vn -0.0000 -0.8572 -0.5150
vn -0.0018 0.5535 0.8329
vn -0.0056 0.6468 0.7627
vn -0.0021 -0.0166 -0.9999
vn 0.0001 0.8336 0.5523
vn -0.0000 -0.7071 -0.7071
vn 0.0001 0.8014 -0.5982
vn 0.0049 0.0145 0.9999
vn 0.0001 0.1589 0.9873
vn -0.0000 -0.0803 -0.9968
vn -0.0001 -0.5955 0.8033
vn 0.0000 0.3827 -0.9239
vn -0.0001 0.9398 -0.3418
vn -0.0001 -0.9988 0.0491
vn -0.0001 0.4236 -0.9059
vn -0.0001 -0.8576 0.5143
vn -0.0002 0.9989 0.0479
vn 0.0000 0.0803 -0.9968
vn 0.0049 -0.0145 0.9999
vn -0.0000 -0.2448 0.9696
vn 0.0000 0.2448 0.9696
vn -0.0001 0.6754 -0.7374
vn 0.0003 -0.9815 0.1913
vn -0.0001 -0.9989 -0.0468
vn -0.0001 -0.9398 -0.3418
vn -0.0000 -0.1449 0.9895
vn 0.0001 -0.8593 -0.5115
vn -0.0001 -0.9399 -0.3414
vn -0.0001 0.3418 -0.9398
vn 0.0001 -0.8336 0.5523
vn 0.0002 0.0787 -0.9969
vn -0.0001 0.6746 0.7382
vn -0.0001 0.4238 0.9057
vn 0.0001 -0.8329 -0.5535
vn 0.0000 0.8572 -0.5150
vn -0.0001 0.9891 -0.1469
vn 0.0003 0.9800 -0.1989
vn -0.0001 -0.9701 0.2428
vn -0.0001 -0.6755 0.7374
vn -0.0000 -0.8038 -0.5949
vn -0.0001 -0.5143 0.8576
vn 0.0001 -0.5577 -0.8301
vn -0.0001 0.3408 0.9402
vn 0.0001 -0.9693 -0.2460
vn -0.0001 -0.6754 -0.7374
vn 0.0001 0.9813 -0.1926
vn 0.0000 0.5125 0.8587
vn -0.0001 0.8576 0.5143
vn -0.0001 -0.4228 -0.9062
vn 0.0001 -0.8014 -0.5982
vn -0.0000 -0.9239 -0.3827
vn -0.0001 -0.7374 0.6755
vn -0.0018 -0.5535 0.8329
vn -0.0000 -0.7071 0.7071
vn -0.0001 0.3419 0.9398
vn -0.0001 -0.6748 -0.7380
vn -0.0001 0.8033 0.5955
vn -0.0001 -0.3418 -0.9398
vn 0.0003 -0.5523 -0.8336
vn -0.0001 0.9060 -0.4233
vn -0.0000 -0.5972 0.8021
vn 0.0001 0.9896 0.1437
vn -0.0001 0.6755 0.7374
vn 0.0000 -0.9988 -0.0481
vn -0.0000 -0.9703 -0.2420
vn -0.0001 0.6748 -0.7380
usemtl None
s off
f 20//1 19//1 21//1
f 141//2 106//2 66//2
f 19//3 108//3 109//3
f 134//4 135//4 181//4
f 74//5 185//5 188//5
f 144//4 143//4 122//4
f 151//6 70//6 63//6
f 170//7 116//7 100//7
f 191//8 146//8 156//8
f 94//9 77//9 133//9
f 24//10 140//10 105//10
f 28//11 128//11 61//11
f 89//3 112//3 99//3
f 3//12 34//12 36//12
f 100//3 115//3 102//3
f 13//13 15//13 179//13
f 80//14 179//14 176//14
f 41//15 43//15 189//15
f 6//3 85//3 86//3
f 39//16 38//16 40//16
f 89//17 141//17 66//17
f 83//18 155//18 81//18
f 147//19 123//19 120//19
f 151//20 149//20 70//20
f 103//3 120//3 76//3
f 89//3 191//3 112//3
f 21//4 124//4 143//4
f 164//4 186//4 125//4
f 159//21 101//21 119//21
f 69//3 90//3 91//3
f 174//22 91//22 93//22
f 47//23 46//23 48//23
f 79//24 191//24 156//24
f 96//3 74//3 95//3
f 61//25 131//25 32//25
f 53//26 165//26 114//26
f 16//27 18//27 137//27
f 20//1 21//1 22//1
f 129//4 128//4 127//4
f 32//3 64//3 61//3
f 56//4 166//4 55//4
f 122//28 107//28 99//28
f 16//29 137//29 110//29
f 76//3 97//3 103//3
f 181//4 164//4 125//4
f 41//3 98//3 42//3
f 42//3 98//3 97//3
f 77//3 94//3 99//3
f 73//3 113//3 114//3
f 192//30 171//30 69//30
f 162//31 91//31 174//31
f 186//32 78//32 87//32
f 145//33 98//33 189//33
f 3//34 4//34 180//34
f 161//35 46//35 118//35
f 58//36 149//36 60//36
f 157//37 75//37 101//37
f 76//38 190//38 97//38
f 105//39 142//39 65//39
f 162//40 68//40 91//40
f 125//41 88//41 104//41
f 67//3 86//3 85//3
f 141//42 139//42 106//42
f 87//3 78//3 88//3
f 82//43 33//43 138//43
f 168//4 150//4 176//4
f 158//44 161//44 118//44
f 182//45 11//45 9//45
f 168//46 166//46 113//46
f 110//3 99//3 111//3
f 42//47 97//47 190//47
f 143//4 22//4 21//4
f 31//3 64//3 32//3
f 155//48 146//48 35//48
f 28//49 30//49 128//49
f 12//4 182//4 186//4
f 112//3 192//3 73//3
f 134//50 110//50 137//50
f 65//51 142//51 129//51
f 63//3 70//3 62//3
f 50//52 52//52 51//52
f 122//53 109//53 107//53
f 42//54 190//54 44//54
f 34//55 187//55 36//55
f 130//56 158//56 102//56
f 43//57 41//57 42//57
f 112//3 73//3 100//3
f 19//58 109//58 124//58
f 135//59 111//59 94//59
f 143//60 108//60 20//60
f 161//61 48//61 46//61
f 122//4 143//4 124//4
f 118//3 45//3 119//3
f 152//62 153//62 83//62
f 191//3 79//3 80//3
f 156//4 129//4 181//4
f 50//63 116//63 169//63
f 178//64 86//64 67//64
f 27//65 127//65 29//65
f 54//66 166//66 56//66
f 117//67 130//67 115//67
f 122//68 124//68 109//68
f 66//3 106//3 65//3
f 74//3 120//3 75//3
f 58//69 70//69 149//69
f 144//70 89//70 108//70
f 33//3 82//3 81//3
f 23//71 139//71 25//71
f 50//52 51//52 49//52
f 49//72 51//72 132//72
f 147//73 187//73 123//73
f 178//74 67//74 181//74
f 3//75 180//75 121//75
f 159//76 119//76 160//76
f 59//77 57//77 58//77
f 55//78 53//78 54//78
f 136//4 135//4 134//4
f 186//79 164//79 78//79
f 81//3 35//3 33//3
f 174//80 93//80 172//80
f 59//77 58//77 60//77
f 142//4 140//4 141//4
f 163//81 1//81 79//81
f 27//82 64//82 127//82
f 122//4 134//4 181//4
f 145//83 103//83 98//83
f 9//3 87//3 88//3
f 125//84 182//84 88//84
f 68//85 162//85 151//85
f 164//86 181//86 67//86
f 85//3 77//3 67//3
f 126//87 125//87 104//87
f 14//88 111//88 136//88
f 33//3 35//3 191//3
f 163//89 2//89 1//89
f 176//4 163//4 156//4
f 188//4 185//4 157//4
f 141//4 144//4 181//4
f 17//90 18//90 16//90
f 160//91 119//91 45//91
f 162//4 171//4 176//4
f 24//3 105//3 23//3
f 126//4 147//4 181//4
f 99//3 107//3 89//3
f 129//92 127//92 64//92
f 47//23 45//23 46//23
f 118//3 46//3 45//3
f 130//93 102//93 115//93
f 154//94 152//94 84//94
f 167//4 168//4 176//4
f 150//4 148//4 151//4
f 150//95 168//95 72//95
f 140//4 26//4 139//4
f 1//96 2//96 15//96
f 79//3 13//3 80//3
f 54//97 113//97 166//97
f 17//90 16//90 14//90
f 36//4 187//4 4//4
f 40//4 184//4 39//4
f 10//98 9//98 11//98
f 132//4 169//4 130//4
f 24//99 26//99 140//99
f 125//4 126//4 181//4
f 192//3 63//3 62//3
f 59//4 60//4 149//4
f 177//4 178//4 133//4
f 4//4 187//4 180//4
f 32//3 33//3 191//3
f 68//100 151//100 63//100
f 49//101 132//101 117//101
f 178//102 5//102 86//102
f 155//4 152//4 154//4
f 120//3 100//3 102//3
f 184//103 40//103 38//103
f 82//3 84//3 83//3
f 117//104 132//104 130//104
f 108//3 89//3 109//3
f 178//105 7//105 5//105
f 162//4 175//4 171//4
f 191//106 35//106 146//106
f 105//3 65//3 106//3
f 178//4 181//4 133//4
f 14//3 110//3 111//3
f 187//4 147//4 180//4
f 86//3 5//3 6//3
f 156//4 146//4 138//4
f 120//3 123//3 121//3
f 148//107 57//107 59//107
f 89//3 66//3 65//3
f 150//108 72//108 62//108
f 191//3 80//3 192//3
f 55//4 166//4 165//4
f 152//62 83//62 84//62
f 116//3 49//3 117//3
f 8//4 178//4 177//4
f 176//4 156//4 188//4
f 158//4 130//4 188//4
f 117//3 115//3 100//3
f 61//109 128//109 131//109
f 100//3 116//3 117//3
f 150//4 151//4 176//4
f 144//110 108//110 143//110
f 65//3 191//3 89//3
f 82//111 138//111 154//111
f 89//112 144//112 141//112
f 72//3 113//3 73//3
f 175//113 173//113 92//113
f 76//114 74//114 183//114
f 183//115 74//115 188//115
f 190//4 183//4 145//4
f 23//3 105//3 106//3
f 39//4 184//4 185//4
f 162//4 174//4 175//4
f 176//4 179//4 163//4
f 170//116 169//116 116//116
f 189//4 190//4 145//4
f 157//117 101//117 159//117
f 129//4 142//4 181//4
f 76//3 120//3 74//3
f 192//3 68//3 63//3
f 192//3 69//3 68//3
f 28//118 27//118 29//118
f 67//3 77//3 112//3
f 184//119 38//119 95//119
f 65//3 31//3 191//3
f 120//120 103//120 147//120
f 147//121 103//121 145//121
f 79//3 1//3 13//3
f 143//122 20//122 22//122
f 7//4 178//4 8//4
f 37//123 185//123 96//123
f 78//3 67//3 112//3
f 92//124 172//124 93//124
f 155//125 35//125 81//125
f 79//126 156//126 163//126
f 105//127 140//127 142//127
f 48//4 161//4 47//4
f 90//3 93//3 91//3
f 39//16 37//16 38//16
f 135//4 133//4 181//4
f 62//3 70//3 71//3
f 44//4 190//4 43//4
f 10//98 11//98 12//98
f 90//3 92//3 93//3
f 41//128 189//128 98//128
f 20//3 108//3 19//3
f 80//129 176//129 192//129
f 50//130 169//130 52//130
f 112//131 126//131 104//131
f 160//132 45//132 47//132
f 14//133 136//133 17//133
f 102//3 101//3 75//3
f 157//134 95//134 75//134
f 122//135 99//135 134//135
f 37//3 96//3 38//3
f 126//136 121//136 180//136
f 175//137 90//137 69//137
f 19//138 124//138 21//138
f 179//4 2//4 163//4
f 175//139 92//139 90//139
f 175//140 69//140 171//140
f 158//141 118//141 102//141
f 120//3 102//3 75//3
f 94//142 133//142 135//142
f 192//143 176//143 171//143
f 150//144 71//144 148//144
f 135//145 136//145 111//145
f 159//4 158//4 188//4
f 121//3 112//3 120//3
f 65//146 129//146 31//146
f 83//147 153//147 155//147
f 155//4 154//4 138//4
f 13//148 179//148 80//148
f 167//149 170//149 100//149
f 154//150 84//150 82//150
f 129//151 64//151 31//151
f 146//4 155//4 138//4
f 75//3 95//3 74//3
f 177//152 6//152 8//152
f 23//153 106//153 139//153
f 82//3 83//3 81//3
f 32//154 138//154 33//154
f 141//4 140//4 139//4
f 43//57 42//57 44//57
f 102//3 118//3 119//3
f 64//3 27//3 61//3
f 167//155 114//155 165//155
f 10//156 186//156 87//156
f 85//157 133//157 77//157
f 1//96 15//96 13//96
f 167//158 100//158 73//158
f 53//159 55//159 165//159
f 28//118 29//118 30//118
f 107//3 109//3 89//3
f 182//160 9//160 88//160
f 102//3 119//3 101//3
f 168//161 113//161 72//161
f 177//162 85//162 6//162
f 167//4 165//4 168//4
f 166//4 168//4 165//4
f 155//4 153//4 152//4
f 24//163 25//163 26//163
f 149//4 151//4 148//4
f 128//4 30//4 127//4
f 59//4 149//4 148//4
f 184//4 157//4 185//4
f 74//164 96//164 185//164
f 30//4 29//4 127//4
f 3//12 36//12 4//12
f 183//4 188//4 147//4
f 98//3 103//3 97//3
f 104//3 88//3 78//3
f 126//4 180//4 147//4
f 147//4 145//4 183//4
f 156//4 131//4 129//4
f 159//4 160//4 158//4
f 170//4 176//4 188//4
f 142//4 141//4 181//4
f 151//4 162//4 176//4
f 43//4 190//4 189//4
f 179//4 15//4 2//4
f 78//165 164//165 67//165
f 51//4 169//4 132//4
f 131//4 128//4 129//4
f 156//4 138//4 131//4
f 6//166 5//166 7//166
f 161//4 158//4 160//4
f 182//4 125//4 186//4
f 52//4 169//4 51//4
f 130//4 170//4 188//4
f 26//4 25//4 139//4
f 174//4 173//4 175//4
f 144//4 122//4 181//4
f 157//4 159//4 188//4
f 16//3 110//3 14//3
f 11//4 182//4 12//4
f 38//3 96//3 95//3
f 191//3 192//3 112//3
f 167//167 73//167 114//167
f 137//4 18//4 17//4
f 85//168 177//168 133//168
f 148//169 71//169 57//169
f 70//3 58//3 71//3
f 134//170 99//170 110//170
f 32//171 131//171 138//171
f 69//3 91//3 68//3
f 76//172 183//172 190//172
f 188//4 156//4 181//4
f 174//4 172//4 173//4
f 27//3 28//3 61//3
f 169//4 170//4 130//4
f 47//4 161//4 160//4
f 99//3 112//3 77//3
f 170//4 167//4 176//4
f 31//3 32//3 191//3
f 10//3 87//3 9//3
f 137//4 17//4 136//4
f 94//3 111//3 99//3
f 37//173 39//173 185//173
f 3//3 121//3 123//3
f 34//174 123//174 187//174
f 112//3 104//3 78//3
f 58//3 57//3 71//3
f 150//175 62//175 71//175
f 126//176 112//176 121//176
f 188//4 181//4 147//4
f 134//4 137//4 136//4
f 92//124 173//124 172//124
f 10//177 12//177 186//177
f 192//3 62//3 72//3
f 24//163 23//163 25//163
f 116//3 50//3 49//3
f 192//3 72//3 73//3
f 120//3 112//3 100//3
f 123//3 34//3 3//3
f 6//166 7//166 8//166
f 157//178 184//178 95//178
f 54//3 53//3 114//3
f 113//3 54//3 114//3
f 55//78 54//78 56//78
