# Blender v2.82 (sub 7) OBJ File: ''
# www.blender.org
mtllib pepper8.mtl
o pepper.1
v 0.627321 -6.447596 -2.277724
v 1.510627 -5.634076 -1.614865
v -0.603586 -6.426301 -2.708549
v -1.275136 -5.777177 -1.343616
v -1.269395 -6.843707 0.191372
v -3.477641 -5.433859 -0.967193
v -2.667174 -6.143286 0.864098
v -1.139511 -6.013466 1.188309
v -2.854131 -4.214436 2.129709
v -0.604155 -6.360097 2.692214
v 0.911138 -6.473839 2.398870
v 1.414984 -5.855039 1.383000
v 3.042078 -5.931628 0.967373
v 1.501103 -6.714995 0.083425
v 2.479840 -4.528838 2.259450
v 2.863756 -5.966056 -1.092035
v 2.421688 -3.894940 -2.884388
v 2.045139 1.536648 -4.105679
v 0.197741 -4.933475 -3.972858
v -1.769646 2.699684 -4.389139
v -1.717546 -3.790928 -3.703867
v -2.989622 -0.519192 -2.818022
v -2.745934 3.413347 -2.637087
v -4.488790 -3.721771 -0.452890
v -4.408690 3.564608 1.626255
v -3.115639 2.704988 2.847565
v -1.916605 -3.878159 3.331466
v -2.039433 2.979699 4.146103
v -0.035541 -3.528438 4.131822
v 1.757323 2.081800 4.424438
v 1.511499 -4.164683 3.706660
v 3.093297 2.119267 2.761981
v 4.491278 2.890413 1.635913
v 4.479348 -3.473196 0.675037
v 4.548769 3.163315 -1.532268
v 0.125646 -6.556047 1.157576
v 0.140621 -5.827817 0.273414
v 1.438778 4.535463 -2.869709
v 2.124664 3.706587 -3.678164
v -0.058530 3.692017 -3.961874
v 0.173603 4.250691 -1.878980
v -1.142366 4.404415 -3.242421
v -1.785378 4.003684 -1.794589
v -3.287816 4.482417 -1.186830
v -4.442412 3.809166 -1.612119
v -3.145036 4.610384 1.200851
v -2.494797 4.145613 2.324768
v -1.969206 4.072048 0.107550
v -1.468420 4.705800 2.961803
v -0.011695 4.295223 3.105228
v 1.250691 4.459327 3.267350
v 2.708583 3.708139 2.550428
v 3.371077 4.519528 1.365246
v 1.599270 3.942308 1.458480
v 3.283119 4.328170 -0.823378
v 4.246838 3.830237 1.524962
v 1.904351 3.998478 0.117090
v 2.647973 3.981554 -2.439473
v 1.461786 3.993956 -1.195807
v -0.063120 4.015709 1.583001
v -0.636793 3.460379 -1.244931
v -1.422921 3.521060 0.828290
v 1.023053 3.524889 1.268300
v 0.832025 3.500043 4.185784
v -2.494434 -3.870533 -2.465487
v 4.051501 -4.374501 -0.917365
vt 0.986828 0.526748
vt 0.986828 0.535609
vt 0.977967 0.535609
vt 0.099919 0.511219
vt 0.102863 0.505513
vt 0.108780 0.511219
vt 0.221870 0.488781
vt 0.230731 0.488781
vt 0.230731 0.497642
vt 0.083008 0.401462
vt 0.075528 0.401462
vt 0.079268 0.397723
vt 0.316097 0.509838
vt 0.307236 0.500977
vt 0.316097 0.500977
vt 0.368211 0.488781
vt 0.377072 0.488781
vt 0.377072 0.497642
vt 0.173089 0.403416
vt 0.180569 0.403416
vt 0.180875 0.405872
vt 0.610733 0.509838
vt 0.610733 0.500977
vt 0.619594 0.500977
vt 0.643984 0.499023
vt 0.635123 0.499023
vt 0.641395 0.488781
vt 0.197480 0.413658
vt 0.201219 0.409918
vt 0.204959 0.413658
vt 0.413658 0.988082
vt 0.391220 0.999023
vt 0.391220 0.977967
vt 0.119594 0.974633
vt 0.098538 0.974633
vt 0.105569 0.952196
vt 0.730731 0.685284
vt 0.730731 0.704960
vt 0.720893 0.695122
vt 0.511219 0.973252
vt 0.488781 0.960596
vt 0.511219 0.952196
vt 0.779511 0.973252
vt 0.757074 0.963503
vt 0.779511 0.952196
vt 0.948862 0.974633
vt 0.927806 0.974633
vt 0.947413 0.952196
vt 0.734065 0.706341
vt 0.743902 0.696503
vt 0.746735 0.696574
vt 0.802520 0.683903
vt 0.802911 0.686274
vt 0.782845 0.683903
vt 0.805855 0.704960
vt 0.805855 0.685284
vt 0.807705 0.684372
vt 0.572964 0.925853
vt 0.563333 0.903416
vt 0.584389 0.903416
vt 0.074481 0.901462
vt 0.075528 0.879025
vt 0.096584 0.879025
vt 0.091491 0.877072
vt 0.075528 0.854635
vt 0.096584 0.854635
vt 0.875691 0.706341
vt 0.856016 0.706341
vt 0.865854 0.696503
vt 0.395365 0.320813
vt 0.392602 0.318050
vt 0.395365 0.318050
vt 0.856016 0.401462
vt 0.859756 0.397723
vt 0.863496 0.401462
vt 0.924472 0.403416
vt 0.920732 0.407156
vt 0.916992 0.403416
vt 0.940001 0.392602
vt 0.946704 0.396894
vt 0.936454 0.398487
vt 0.488781 0.324147
vt 0.491545 0.324147
vt 0.488781 0.326911
vt 0.098538 0.380406
vt 0.102277 0.384146
vt 0.098538 0.387886
vt 0.160894 0.366830
vt 0.168374 0.366830
vt 0.164634 0.370570
vt 0.889267 0.497642
vt 0.880406 0.488781
vt 0.889267 0.488781
vt 0.330245 0.387886
vt 0.330245 0.380406
vt 0.333985 0.384146
vt 0.356016 0.377072
vt 0.359756 0.373332
vt 0.363795 0.371365
vt 0.368211 0.377072
vt 0.371951 0.373332
vt 0.373308 0.381408
vt 0.404797 0.379025
vt 0.412277 0.379025
vt 0.408537 0.382765
vt 0.452196 0.387886
vt 0.452196 0.380406
vt 0.455936 0.384146
vt 0.522033 0.379025
vt 0.518293 0.382765
vt 0.514553 0.379025
vt 0.643984 0.366830
vt 0.640244 0.370570
vt 0.636504 0.366830
vt 0.668374 0.379025
vt 0.661653 0.388508
vt 0.662314 0.383207
vt 0.659513 0.368211
vt 0.663253 0.371951
vt 0.659513 0.375691
vt 0.610733 0.319431
vt 0.613496 0.322194
vt 0.610733 0.322194
vt 0.758455 0.379025
vt 0.765935 0.379025
vt 0.762195 0.382765
vt 0.863496 0.379025
vt 0.859756 0.382765
vt 0.860006 0.382118
vt 0.961057 0.366830
vt 0.957317 0.370570
vt 0.953577 0.366830
vt 0.011219 0.356016
vt 0.011219 0.363496
vt 0.007479 0.359756
vt 0.074147 0.356016
vt 0.077887 0.359756
vt 0.074147 0.363496
vt 0.137815 0.358708
vt 0.143984 0.354635
vt 0.140244 0.358375
vt 0.168374 0.364877
vt 0.160894 0.364877
vt 0.164634 0.361137
vt 0.169755 0.363496
vt 0.166015 0.359756
vt 0.165951 0.357058
vt 0.194145 0.363496
vt 0.190405 0.359756
vt 0.191186 0.356213
vt 0.305855 0.363496
vt 0.303901 0.360850
vt 0.309595 0.359756
vt 0.326911 0.352682
vt 0.320449 0.348902
vt 0.323171 0.348942
vt 0.635123 0.326911
vt 0.635123 0.324147
vt 0.637886 0.324147
vt 0.913658 0.314716
vt 0.910894 0.311952
vt 0.913658 0.311952
vt 0.942764 0.309999
vt 0.940001 0.309999
vt 0.940001 0.307236
vt 0.996260 0.299757
vt 0.999023 0.299757
vt 0.999023 0.302520
vt 0.031464 0.288943
vt 0.034228 0.291706
vt 0.031464 0.291706
vt 0.057236 0.273414
vt 0.059999 0.270650
vt 0.059999 0.273414
vt 0.900081 0.464391
vt 0.891220 0.473252
vt 0.891220 0.464391
vt 0.990163 0.476586
vt 0.999023 0.476586
vt 0.999023 0.485447
vt 0.074147 0.441382
vt 0.083008 0.450243
vt 0.074147 0.450243
vt 0.217155 0.462438
vt 0.208294 0.462438
vt 0.206341 0.457385
vt 0.368211 0.352682
vt 0.371951 0.348942
vt 0.375691 0.352682
vt 0.316097 0.660894
vt 0.316097 0.680569
vt 0.306259 0.670732
vt 0.380406 0.352682
vt 0.384146 0.348942
vt 0.387886 0.352682
vt 0.380406 0.354635
vt 0.387886 0.354635
vt 0.384146 0.358375
vt 0.619594 0.452196
vt 0.610733 0.461057
vt 0.610733 0.452196
vt 0.734065 0.462438
vt 0.742926 0.453577
vt 0.742926 0.462438
vt 0.839106 0.450243
vt 0.823588 0.450243
vt 0.830245 0.441382
vt 0.863496 0.450243
vt 0.854635 0.450243
vt 0.854635 0.441382
vt 0.977967 0.681950
vt 0.987805 0.672113
vt 0.994483 0.676029
vt 0.072194 0.636504
vt 0.072194 0.656179
vt 0.062357 0.646341
vt 0.171708 0.656179
vt 0.185421 0.635123
vt 0.181546 0.646341
vt 0.218536 0.636504
vt 0.218536 0.656179
vt 0.208698 0.646341
vt 0.511219 0.636504
vt 0.508919 0.656641
vt 0.501381 0.646341
vt 0.782845 0.657560
vt 0.792683 0.647722
vt 0.802520 0.657560
vt 0.852682 0.636504
vt 0.846315 0.652574
vt 0.842844 0.646341
vt 0.124309 0.610733
vt 0.138768 0.618711
vt 0.134146 0.620570
vt 0.022033 0.852682
vt 0.000977 0.852682
vt 0.000977 0.831626
vt 0.339106 0.610733
vt 0.329268 0.620570
vt 0.318050 0.622534
vt 0.075528 0.830245
vt 0.096584 0.830245
vt 0.096584 0.851301
vt 0.559999 0.612114
vt 0.559999 0.631789
vt 0.550162 0.621951
vt 0.729350 0.633170
vt 0.713745 0.626338
vt 0.719512 0.623332
vt 0.826911 0.633170
vt 0.809720 0.627924
vt 0.817073 0.623332
vt 0.025367 0.587723
vt 0.031115 0.590710
vt 0.025367 0.607399
vt 0.986828 0.448862
vt 0.977967 0.440001
vt 0.986828 0.440001
vt 0.169755 0.587723
vt 0.169755 0.607399
vt 0.159918 0.597561
vt 0.425853 0.343821
vt 0.425853 0.351301
vt 0.422113 0.347561
vt 0.427806 0.351301
vt 0.427806 0.343821
vt 0.431546 0.347561
vt 0.156179 0.425853
vt 0.147318 0.425853
vt 0.147318 0.416992
vt 0.525367 0.343821
vt 0.529107 0.347561
vt 0.525367 0.351301
vt 0.376668 0.597561
vt 0.366830 0.607399
vt 0.366830 0.587723
vt 0.398699 0.285609
vt 0.401462 0.282845
vt 0.401462 0.285609
vt 0.965772 0.328292
vt 0.970489 0.325927
vt 0.968536 0.328292
vt 0.366830 0.416992
vt 0.375378 0.427806
vt 0.366830 0.425853
vt 0.757074 0.356016
vt 0.760814 0.359756
vt 0.761909 0.361423
vt 0.757074 0.351301
vt 0.757074 0.343821
vt 0.760814 0.347561
vt 0.656179 0.852682
vt 0.635123 0.852682
vt 0.649457 0.830245
vt 0.976586 0.831626
vt 0.997642 0.852682
vt 0.976586 0.852682
vt 0.729350 0.608780
vt 0.709675 0.608780
vt 0.719512 0.598942
vt 0.659513 0.807236
vt 0.680569 0.828292
vt 0.659513 0.828292
vt 0.196099 0.782845
vt 0.217155 0.803901
vt 0.196099 0.803901
vt 0.026748 0.757074
vt 0.047804 0.757074
vt 0.038867 0.779511
vt 0.586342 0.758455
vt 0.607398 0.779511
vt 0.586342 0.779511
vt 0.977967 0.608780
vt 0.987805 0.598942
vt 0.990073 0.598448
vt 0.143984 0.755121
vt 0.122928 0.755121
vt 0.122928 0.734065
vt 0.145365 0.753740
vt 0.124309 0.732684
vt 0.145365 0.732684
vt 0.645967 0.755121
vt 0.636504 0.732684
vt 0.657560 0.732684
vt 0.217155 0.561952
vt 0.207317 0.571790
vt 0.197480 0.561952
vt 0.334389 0.296423
vt 0.331626 0.293660
vt 0.334389 0.293660
vt 0.392602 0.293660
vt 0.395365 0.293660
vt 0.397318 0.295243
vt 0.217155 0.730731
vt 0.196099 0.730731
vt 0.196099 0.709675
vt 0.218536 0.729350
vt 0.197480 0.708294
vt 0.218536 0.708294
vt 0.803901 0.538943
vt 0.800929 0.558408
vt 0.794064 0.548781
vt 0.244879 0.685284
vt 0.265935 0.706341
vt 0.244879 0.706341
vt 0.002358 0.535609
vt 0.012195 0.525771
vt 0.022033 0.535609
vt 0.122928 0.534228
vt 0.122928 0.514553
vt 0.132765 0.524390
vt 0.441382 0.535609
vt 0.451219 0.525771
vt 0.457136 0.528925
vt 0.826911 0.438048
vt 0.818050 0.438048
vt 0.809386 0.426719
vt 0.948862 0.415611
vt 0.938048 0.423927
vt 0.940001 0.415611
vt 0.002358 0.267316
vt 0.005121 0.264553
vt 0.005121 0.267316
vt 0.507074 0.162277
vt 0.507074 0.159513
vt 0.509838 0.159513
vt 0.171708 0.204960
vt 0.171708 0.202196
vt 0.174472 0.202196
vt 0.186667 0.200243
vt 0.183903 0.200243
vt 0.183903 0.197480
vt 0.197480 0.206341
vt 0.200243 0.203577
vt 0.200243 0.206341
vt 0.886320 0.253357
vt 0.885087 0.252789
vt 0.887863 0.251494
vt 0.354466 0.155464
vt 0.455476 0.176202
vt 0.352682 0.153416
vt 0.868973 0.260202
vt 0.869334 0.259849
vt 0.929188 0.269269
vn 0.1257 -0.4162 -0.9006
vn 0.3714 -0.9089 -0.1897
vn -0.3261 -0.8726 -0.3636
vn 0.1271 -0.9919 0.0057
vn -0.6580 -0.6304 -0.4119
vn -0.3592 -0.8835 -0.3008
vn -0.5115 -0.7415 0.4342
vn -0.2528 -0.9083 0.3332
vn -0.7405 -0.3466 0.5758
vn -0.3141 -0.7990 0.5128
vn 0.5682 -0.7139 0.4093
vn 0.3721 -0.8949 0.2463
vn -0.1365 -0.9906 0.0002
vn 0.6791 -0.3684 0.6349
vn 0.4840 -0.7566 -0.4397
vn 0.3665 -0.8455 -0.3882
vn -0.4235 0.2393 -0.8737
vn 0.4474 0.0357 -0.8936
vn -0.5598 -0.2761 -0.7813
vn -0.7431 -0.0776 -0.6647
vn -0.5459 0.5257 -0.6524
vn -0.7666 0.4791 -0.4274
vn -0.9611 -0.2595 -0.0944
vn -0.8225 0.3873 0.4165
vn -0.7111 0.1508 0.6867
vn -0.5611 -0.2717 0.7819
vn -0.4663 0.2622 0.8449
vn -0.0827 -0.2385 0.9676
vn 0.4287 0.1113 0.8966
vn 0.4795 -0.3232 0.8158
vn 0.7016 0.0508 0.7108
vn 0.9294 -0.2204 0.2959
vn 0.8526 0.3502 -0.3879
vn 0.8725 0.1194 0.4739
vn 0.8692 -0.3505 -0.3489
vn 0.0333 -0.9334 -0.3574
vn 0.0310 -0.9877 -0.1534
vn 0.3996 -0.8455 0.3542
vn 0.0581 0.6000 -0.7979
vn 0.1249 0.9846 -0.1222
vn 0.5487 0.4278 -0.7183
vn -0.0706 0.9439 0.3226
vn -0.1688 0.9218 -0.3490
vn -0.0011 1.0000 0.0037
vn -0.1376 0.9612 -0.2392
vn -0.1288 0.9746 0.1834
vn -0.3377 0.8848 0.3211
vn 0.4685 0.8815 0.0588
vn 0.1953 0.9509 0.2400
vn -0.1832 0.9697 -0.1615
vn 0.4533 0.6599 0.5992
vn 0.2474 0.9561 -0.1569
vn 0.7476 0.5394 0.3875
vn -0.2903 0.9564 0.0311
vn 0.4665 0.8004 -0.3765
vn -0.1134 0.9874 0.1106
vn 0.2828 0.9508 -0.1268
vn 0.0866 0.9755 0.2021
vn 0.0589 0.8653 -0.4977
vn -0.2011 0.9562 0.2129
vn 0.2301 0.9082 0.3496
vn 0.0523 0.9305 0.3625
vn -0.2077 0.8791 -0.4290
vn 0.1503 0.4757 0.8667
vn 0.6174 -0.3025 -0.7262
vn -0.7109 -0.3536 -0.6080
usemtl material_0
s 1
f 19/1/1 1/2/2 3/3/3
f 5/4/4 6/5/5 4/6/6
f 6/7/5 5/8/4 7/9/7
f 8/10/8 7/11/7 5/12/4
f 9/13/9 7/14/7 8/15/8
f 9/16/9 8/17/8 10/18/10
f 13/19/11 12/20/12 14/21/13
f 15/22/14 12/23/12 13/24/11
f 14/25/13 16/26/15 13/27/11
f 16/28/15 14/29/13 2/30/16
f 19/31/1 20/32/17 18/33/18
f 21/34/19 22/35/20 20/36/17
f 20/37/17 22/38/20 23/39/21
f 45/40/22 22/41/20 24/42/23
f 45/43/22 23/44/21 22/45/20
f 25/46/24 45/47/22 24/48/23
f 9/49/9 26/50/25 25/51/24
f 26/52/25 9/53/9 27/54/26
f 26/55/25 27/56/26 28/57/27
f 29/58/28 30/59/29 28/60/27
f 30/61/29 31/62/30 32/63/31
f 34/64/32 35/65/33 33/66/34
f 66/67/35 18/68/18 35/69/33
f 10/70/10 8/71/8 36/72/36
f 1/73/2 2/74/16 37/75/37
f 37/76/37 3/77/3 1/78/2
f 37/79/37 4/80/6 3/81/3
f 5/82/4 4/83/6 37/84/37
f 10/85/10 36/86/36 11/87/38
f 12/88/12 11/89/38 36/90/36
f 40/91/39 38/92/40 39/93/41
f 41/94/42 38/95/40 40/96/39
f 41/97/42 40/98/39 42/99/43
f 23/100/21 43/101/44 42/102/43
f 23/103/21 44/104/45 43/105/44
f 25/106/24 44/107/45 45/108/22
f 46/109/46 47/110/47 48/111/48
f 53/112/49 54/113/50 52/114/51
f 55/115/52 53/116/49 56/117/53
f 55/118/52 57/119/54 53/120/49
f 58/121/55 41/122/42 59/123/56
f 38/124/40 41/125/42 58/126/55
f 41/127/42 42/128/43 43/129/44
f 48/130/48 44/131/45 46/132/46
f 48/133/48 47/134/47 62/135/57
f 50/136/58 60/137/59 49/138/60
f 51/139/61 60/140/59 50/141/58
f 54/142/50 51/143/61 52/144/51
f 60/145/59 51/146/61 54/147/50
f 53/148/49 57/149/54 54/150/50
f 55/151/52 59/152/56 57/153/54
f 59/154/56 55/155/52 58/156/55
f 41/157/42 43/158/44 61/159/62
f 43/160/44 48/161/48 61/162/62
f 48/163/48 62/164/57 61/165/62
f 63/166/63 62/167/57 60/168/59
f 60/169/59 54/170/50 63/171/63
f 54/172/50 57/173/54 63/174/63
f 40/175/39 20/176/17 42/177/43
f 20/178/17 23/179/21 42/180/43
f 45/181/22 44/182/45 23/183/21
f 44/184/45 25/185/24 46/186/46
f 25/187/24 47/188/47 46/189/46
f 64/190/64 49/191/60 28/192/27
f 64/193/64 50/194/58 49/195/60
f 64/196/64 51/197/61 50/198/58
f 56/199/53 53/200/49 52/201/51
f 56/202/53 35/203/33 55/204/52
f 58/205/55 55/206/52 35/207/33
f 17/208/65 2/209/16 1/210/2
f 17/211/65 1/212/2 19/213/1
f 3/214/3 21/215/19 19/216/1
f 65/217/66 3/218/3 4/219/6
f 21/220/19 3/221/3 65/222/66
f 6/223/5 65/224/66 4/225/6
f 7/226/7 9/227/9 24/228/23
f 7/229/7 24/230/23 6/231/5
f 10/232/10 27/233/26 9/234/9
f 10/235/10 29/236/28 27/237/26
f 10/238/10 11/239/38 31/240/30
f 31/241/30 29/242/28 10/243/10
f 15/244/14 31/245/30 11/246/38
f 13/247/11 34/248/32 15/249/14
f 13/250/11 66/251/35 34/252/32
f 13/253/11 16/254/15 66/255/35
f 17/256/65 16/257/15 2/258/16
f 66/259/35 16/260/15 17/261/65
f 11/262/38 12/263/12 15/264/14
f 38/265/40 58/266/55 39/267/41
f 39/268/41 58/269/55 18/270/18
f 25/271/24 26/272/25 47/273/47
f 66/274/35 17/275/65 18/276/18
f 2/277/16 14/278/13 37/279/37
f 49/280/60 62/281/57 47/282/47
f 35/283/33 18/284/18 58/285/55
f 28/286/27 49/287/60 47/288/47
f 28/289/27 47/290/47 26/291/25
f 17/292/65 19/293/1 18/294/18
f 21/295/19 20/296/17 19/297/1
f 65/298/66 24/299/23 22/300/20
f 6/301/5 24/302/23 65/303/66
f 25/304/24 24/305/23 9/306/9
f 28/307/27 27/308/26 29/309/28
f 30/310/29 29/311/28 31/312/30
f 15/313/14 32/314/31 31/315/30
f 34/316/32 33/317/34 32/318/31
f 34/319/32 32/320/31 15/321/14
f 34/322/32 66/323/35 35/324/33
f 21/325/19 65/326/66 22/327/20
f 48/328/48 43/329/44 44/330/45
f 49/331/60 60/332/59 62/333/57
f 40/334/39 39/335/41 18/336/18
f 40/337/39 18/338/18 20/339/17
f 51/340/61 64/341/64 30/342/29
f 28/343/27 30/344/29 64/345/64
f 52/346/51 51/347/61 30/348/29
f 33/349/34 56/350/53 52/351/51
f 56/352/53 33/353/34 35/354/33
f 30/355/29 32/356/31 52/357/51
f 33/358/34 52/359/51 32/360/31
f 61/361/62 59/362/56 41/363/42
f 36/364/36 8/365/8 37/366/37
f 37/367/37 8/368/8 5/369/4
f 37/370/37 12/371/12 36/372/36
f 14/373/13 12/374/12 37/375/37
f 62/376/57 63/377/63 61/378/62
f 59/379/56 61/380/62 57/381/54
f 61/382/62 63/383/63 57/384/54
