####
#
# OBJ File Generated by Meshlab
#
####
# Object cylinder.obj
#
# Vertices: 62
# Faces: 120
#
####
mtllib ./cylinder.obj.mtl

vn 0.717830 -0.097814 -0.689314
v 0.032309 -0.003514 -0.047500
vn 0.691706 -0.233029 -0.683549
v 0.030799 -0.010377 -0.047500
vn 0.625409 -0.376304 -0.683563
v 0.027848 -0.016756 -0.047500
vn 0.529896 -0.501950 -0.683562
v 0.023595 -0.022350 -0.047500
vn 0.409602 -0.604127 -0.683562
v 0.018239 -0.026900 -0.047500
vn 0.270161 -0.678051 -0.683564
v 0.012029 -0.030192 -0.047500
vn 0.118084 -0.720279 -0.683560
v 0.005258 -0.032072 -0.047500
vn -0.039516 -0.728820 -0.683564
v -0.001760 -0.032452 -0.047500
vn -0.195267 -0.703290 -0.683560
v -0.008695 -0.031315 -0.047500
vn -0.341886 -0.644867 -0.683564
v -0.015223 -0.028714 -0.047500
vn -0.472522 -0.556298 -0.683560
v -0.021040 -0.024770 -0.047500
vn -0.581063 -0.441710 -0.683563
v -0.025873 -0.019668 -0.047500
vn -0.662432 -0.306475 -0.683562
v -0.029496 -0.013646 -0.047500
vn -0.712829 -0.156905 -0.683561
v -0.031740 -0.006986 -0.047500
vn -0.729892 -0.000000 -0.683563
v -0.032500 -0.000000 -0.047500
vn -0.712829 0.156905 -0.683561
v -0.031740 0.006987 -0.047500
vn -0.662432 0.306475 -0.683562
v -0.029496 0.013646 -0.047500
vn -0.581063 0.441710 -0.683563
v -0.025873 0.019668 -0.047500
vn -0.472522 0.556298 -0.683560
v -0.021040 0.024770 -0.047500
vn -0.341886 0.644867 -0.683564
v -0.015223 0.028714 -0.047500
vn -0.195267 0.703290 -0.683560
v -0.008695 0.031315 -0.047500
vn -0.039516 0.728820 -0.683564
v -0.001760 0.032452 -0.047500
vn 0.118084 0.720279 -0.683560
v 0.005258 0.032072 -0.047500
vn 0.270161 0.678051 -0.683564
v 0.012029 0.030192 -0.047500
vn 0.409602 0.604127 -0.683562
v 0.018239 0.026900 -0.047500
vn 0.529897 0.501949 -0.683562
v 0.023595 0.022350 -0.047500
vn 0.625409 0.376304 -0.683563
v 0.027848 0.016755 -0.047500
vn 0.691706 0.233029 -0.683550
v 0.030799 0.010377 -0.047500
vn 0.717830 0.097814 -0.689314
v 0.032309 0.003514 -0.047500
vn 0.718920 0.000000 -0.695093
v 0.032500 -0.000000 -0.047500
vn 0.000000 0.000000 -1.000000
v 0.000000 -0.000000 -0.047500
vn -0.729892 0.000000 0.683563
v -0.032500 -0.000000 0.047500
vn -0.712829 0.156905 0.683561
v -0.031740 0.006987 0.047500
vn -0.662432 0.306475 0.683562
v -0.029496 0.013646 0.047500
vn -0.581063 0.441710 0.683563
v -0.025873 0.019668 0.047500
vn -0.472522 0.556298 0.683560
v -0.021040 0.024770 0.047500
vn -0.341886 0.644867 0.683564
v -0.015223 0.028714 0.047500
vn -0.195267 0.703290 0.683560
v -0.008695 0.031315 0.047500
vn -0.039516 0.728820 0.683564
v -0.001760 0.032452 0.047500
vn 0.118084 0.720279 0.683560
v 0.005258 0.032072 0.047500
vn 0.270162 0.678051 0.683564
v 0.012029 0.030192 0.047500
vn 0.409602 0.604127 0.683562
v 0.018239 0.026900 0.047500
vn 0.529897 0.501950 0.683561
v 0.023595 0.022350 0.047500
vn 0.625409 0.376304 0.683564
v 0.027848 0.016755 0.047500
vn 0.691706 0.233029 0.683549
v 0.030799 0.010377 0.047500
vn 0.717830 0.097814 0.689314
v 0.032309 0.003514 0.047500
vn 0.717830 -0.097814 0.689314
v 0.032309 -0.003514 0.047500
vn 0.718920 0.000000 0.695093
v 0.032500 -0.000000 0.047500
vn 0.691706 -0.233029 0.683550
v 0.030799 -0.010377 0.047500
vn 0.625409 -0.376304 0.683563
v 0.027848 -0.016756 0.047500
vn 0.529896 -0.501949 0.683562
v 0.023595 -0.022350 0.047500
vn 0.409602 -0.604127 0.683562
v 0.018239 -0.026900 0.047500
vn 0.270161 -0.678051 0.683564
v 0.012029 -0.030192 0.047500
vn 0.118084 -0.720279 0.683560
v 0.005258 -0.032072 0.047500
vn -0.039516 -0.728820 0.683564
v -0.001760 -0.032452 0.047500
vn -0.195267 -0.703290 0.683560
v -0.008695 -0.031315 0.047500
vn -0.341886 -0.644867 0.683564
v -0.015223 -0.028714 0.047500
vn -0.472522 -0.556298 0.683560
v -0.021040 -0.024770 0.047500
vn -0.581063 -0.441710 0.683563
v -0.025873 -0.019668 0.047500
vn -0.662432 -0.306475 0.683562
v -0.029496 -0.013646 0.047500
vn -0.712829 -0.156905 0.683561
v -0.031740 -0.006986 0.047500
vn 0.000000 0.000000 1.000000
v 0.000000 -0.000000 0.047500
# 62 vertices, 0 vertices normals


usemtl material_0
f 31//31 1//1 2//2
f 2//2 3//3 31//31
f 3//3 4//4 31//31
f 4//4 5//5 31//31
f 5//5 6//6 31//31
f 6//6 7//7 31//31
f 7//7 8//8 31//31
f 8//8 9//9 31//31
f 9//9 10//10 31//31
f 10//10 11//11 31//31
f 11//11 12//12 31//31
f 12//12 13//13 31//31
f 13//13 14//14 31//31
f 14//14 15//15 31//31
f 15//15 16//16 31//31
f 16//16 17//17 31//31
f 17//17 18//18 31//31
f 18//18 19//19 31//31
f 19//19 20//20 31//31
f 20//20 21//21 31//31
f 21//21 22//22 31//31
f 22//22 23//23 31//31
f 23//23 24//24 31//31
f 24//24 25//25 31//31
f 25//25 26//26 31//31
f 26//26 27//27 31//31
f 27//27 28//28 31//31
f 28//28 29//29 31//31
f 29//29 30//30 31//31
f 30//30 1//1 31//31
f 15//15 32//32 33//33
f 16//16 33//33 34//34
f 17//17 34//34 35//35
f 18//18 35//35 36//36
f 19//19 36//36 37//37
f 20//20 37//37 38//38
f 21//21 38//38 39//39
f 22//22 39//39 40//40
f 23//23 40//40 41//41
f 24//24 41//41 42//42
f 25//25 42//42 43//43
f 26//26 43//43 44//44
f 27//27 44//44 45//45
f 28//28 45//45 46//46
f 47//47 1//1 30//30
f 29//29 46//46 48//48
f 48//48 30//30 29//29
f 1//1 47//47 49//49
f 2//2 49//49 50//50
f 3//3 50//50 51//51
f 4//4 51//51 52//52
f 5//5 52//52 53//53
f 6//6 53//53 54//54
f 7//7 54//54 55//55
f 8//8 55//55 56//56
f 9//9 56//56 57//57
f 10//10 57//57 58//58
f 11//11 58//58 59//59
f 12//12 59//59 60//60
f 13//13 60//60 61//61
f 14//14 61//61 32//32
f 32//32 15//15 14//14
f 61//61 14//14 13//13
f 60//60 13//13 12//12
f 59//59 12//12 11//11
f 58//58 11//11 10//10
f 57//57 10//10 9//9
f 56//56 9//9 8//8
f 55//55 8//8 7//7
f 54//54 7//7 6//6
f 53//53 6//6 5//5
f 52//52 5//5 4//4
f 51//51 4//4 3//3
f 50//50 3//3 2//2
f 49//49 2//2 1//1
f 30//30 48//48 47//47
f 46//46 29//29 28//28
f 45//45 28//28 27//27
f 44//44 27//27 26//26
f 43//43 26//26 25//25
f 42//42 25//25 24//24
f 41//41 24//24 23//23
f 40//40 23//23 22//22
f 39//39 22//22 21//21
f 38//38 21//21 20//20
f 37//37 20//20 19//19
f 36//36 19//19 18//18
f 35//35 18//18 17//17
f 34//34 17//17 16//16
f 33//33 16//16 15//15
f 62//62 46//46 45//45
f 45//45 44//44 62//62
f 44//44 43//43 62//62
f 43//43 42//42 62//62
f 42//42 41//41 62//62
f 41//41 40//40 62//62
f 40//40 39//39 62//62
f 39//39 38//38 62//62
f 38//38 37//37 62//62
f 37//37 36//36 62//62
f 36//36 35//35 62//62
f 35//35 34//34 62//62
f 34//34 33//33 62//62
f 33//33 32//32 62//62
f 32//32 61//61 62//62
f 61//61 60//60 62//62
f 60//60 59//59 62//62
f 59//59 58//58 62//62
f 58//58 57//57 62//62
f 57//57 56//56 62//62
f 56//56 55//55 62//62
f 55//55 54//54 62//62
f 54//54 53//53 62//62
f 53//53 52//52 62//62
f 52//52 51//51 62//62
f 51//51 50//50 62//62
f 50//50 49//49 62//62
f 49//49 47//47 62//62
f 47//47 48//48 62//62
f 48//48 46//46 62//62
# 120 faces, 0 coords texture

# End of File
